<svg width="223" height="48" viewBox="0 0 223 48" fill="none" xmlns="http://www.w3.org/2000/svg">
<path d="M9.1 7.78C10.02 7.98 10.7267 8.38 11.22 8.98C11.7267 9.56667 11.98 10.3267 11.98 11.26C11.98 12.46 11.5333 13.3867 10.64 14.04C9.76 14.68 8.45333 15 6.72 15H0.28V0.999999H6.32C7.88 0.999999 9.08667 1.31333 9.94 1.94C10.8067 2.56667 11.24 3.45333 11.24 4.6C11.24 5.37333 11.0467 6.03333 10.66 6.58C10.2867 7.11333 9.76667 7.51333 9.1 7.78ZM1.76 2.22V7.3H6.22C7.35333 7.3 8.22667 7.08667 8.84 6.66C9.45333 6.22 9.76 5.58667 9.76 4.76C9.76 3.93333 9.45333 3.30667 8.84 2.88C8.22667 2.44 7.35333 2.22 6.22 2.22H1.76ZM6.7 13.78C7.95333 13.78 8.9 13.5667 9.54 13.14C10.18 12.7133 10.5 12.0467 10.5 11.14C10.5 9.39333 9.23333 8.52 6.7 8.52H1.76V13.78H6.7ZM16.4181 6.54C16.7515 5.83333 17.2448 5.3 17.8981 4.94C18.5648 4.58 19.3848 4.4 20.3581 4.4V5.78L20.0181 5.76C18.9115 5.76 18.0448 6.1 17.4181 6.78C16.7915 7.46 16.4781 8.41333 16.4781 9.64V15H15.0581V4.48H16.4181V6.54ZM26.5897 4.4C27.963 4.4 29.0164 4.74667 29.7497 5.44C30.483 6.12 30.8497 7.13333 30.8497 8.48V15H29.4897V13.36C29.1697 13.9067 28.6964 14.3333 28.0697 14.64C27.4564 14.9467 26.723 15.1 25.8697 15.1C24.6964 15.1 23.763 14.82 23.0697 14.26C22.3764 13.7 22.0297 12.96 22.0297 12.04C22.0297 11.1467 22.3497 10.4267 22.9897 9.88C23.643 9.33333 24.6764 9.06 26.0897 9.06H29.4297V8.42C29.4297 7.51333 29.1764 6.82667 28.6697 6.36C28.163 5.88 27.423 5.64 26.4497 5.64C25.783 5.64 25.143 5.75333 24.5297 5.98C23.9164 6.19333 23.3897 6.49333 22.9497 6.88L22.3097 5.82C22.843 5.36667 23.483 5.02 24.2297 4.78C24.9764 4.52667 25.763 4.4 26.5897 4.4ZM26.0897 13.98C26.8897 13.98 27.5764 13.8 28.1497 13.44C28.723 13.0667 29.1497 12.5333 29.4297 11.84V10.12H26.1297C24.3297 10.12 23.4297 10.7467 23.4297 12C23.4297 12.6133 23.663 13.1 24.1297 13.46C24.5964 13.8067 25.2497 13.98 26.0897 13.98ZM40.2466 14.36C39.9799 14.6 39.6466 14.7867 39.2466 14.92C38.8599 15.04 38.4532 15.1 38.0266 15.1C37.0399 15.1 36.2799 14.8333 35.7466 14.3C35.2132 13.7667 34.9466 13.0133 34.9466 12.04V5.68H33.0666V4.48H34.9466V2.18H36.3666V4.48H39.5666V5.68H36.3666V11.96C36.3666 12.5867 36.5199 13.0667 36.8266 13.4C37.1466 13.72 37.5999 13.88 38.1866 13.88C38.4799 13.88 38.7599 13.8333 39.0266 13.74C39.3066 13.6467 39.5466 13.5133 39.7466 13.34L40.2466 14.36ZM46.5116 4.4C47.8849 4.4 48.9382 4.74667 49.6716 5.44C50.4049 6.12 50.7716 7.13333 50.7716 8.48V15H49.4116V13.36C49.0916 13.9067 48.6182 14.3333 47.9916 14.64C47.3782 14.9467 46.6449 15.1 45.7916 15.1C44.6182 15.1 43.6849 14.82 42.9916 14.26C42.2982 13.7 41.9516 12.96 41.9516 12.04C41.9516 11.1467 42.2716 10.4267 42.9116 9.88C43.5649 9.33333 44.5982 9.06 46.0116 9.06H49.3516V8.42C49.3516 7.51333 49.0982 6.82667 48.5916 6.36C48.0849 5.88 47.3449 5.64 46.3716 5.64C45.7049 5.64 45.0649 5.75333 44.4516 5.98C43.8382 6.19333 43.3116 6.49333 42.8716 6.88L42.2316 5.82C42.7649 5.36667 43.4049 5.02 44.1516 4.78C44.8982 4.52667 45.6849 4.4 46.5116 4.4ZM46.0116 13.98C46.8116 13.98 47.4982 13.8 48.0716 13.44C48.6449 13.0667 49.0716 12.5333 49.3516 11.84V10.12H46.0516C44.2516 10.12 43.3516 10.7467 43.3516 12C43.3516 12.6133 43.5849 13.1 44.0516 13.46C44.5182 13.8067 45.1716 13.98 46.0116 13.98ZM59.9884 4.4C61.3084 4.4 62.3551 4.78667 63.1284 5.56C63.9151 6.32 64.3084 7.43333 64.3084 8.9V15H62.8884V9.04C62.8884 7.94667 62.6151 7.11333 62.0684 6.54C61.5218 5.96667 60.7418 5.68 59.7284 5.68C58.5951 5.68 57.6951 6.02 57.0284 6.7C56.3751 7.36667 56.0484 8.29333 56.0484 9.48V15H54.6284V4.48H55.9884V6.42C56.3751 5.78 56.9084 5.28667 57.5884 4.94C58.2818 4.58 59.0818 4.4 59.9884 4.4ZM78.818 4.4C79.8046 4.4 80.698 4.62667 81.498 5.08C82.298 5.52 82.9246 6.14667 83.378 6.96C83.8313 7.77333 84.058 8.7 84.058 9.74C84.058 10.7933 83.8313 11.7267 83.378 12.54C82.9246 13.3533 82.298 13.9867 81.498 14.44C80.7113 14.88 79.818 15.1 78.818 15.1C77.9646 15.1 77.1913 14.9267 76.498 14.58C75.818 14.22 75.258 13.7 74.818 13.02V18.88H73.398V4.48H74.758V6.56C75.1846 5.86667 75.7446 5.33333 76.438 4.96C77.1446 4.58667 77.938 4.4 78.818 4.4ZM78.718 13.84C79.4513 13.84 80.118 13.6733 80.718 13.34C81.318 12.9933 81.7846 12.5067 82.118 11.88C82.4646 11.2533 82.638 10.54 82.638 9.74C82.638 8.94 82.4646 8.23333 82.118 7.62C81.7846 6.99333 81.318 6.50667 80.718 6.16C80.118 5.81333 79.4513 5.64 78.718 5.64C77.9713 5.64 77.298 5.81333 76.698 6.16C76.1113 6.50667 75.6446 6.99333 75.298 7.62C74.9646 8.23333 74.798 8.94 74.798 9.74C74.798 10.54 74.9646 11.2533 75.298 11.88C75.6446 12.5067 76.1113 12.9933 76.698 13.34C77.298 13.6733 77.9713 13.84 78.718 13.84ZM86.9527 4.48H88.3727V15H86.9527V4.48ZM87.6727 2.18C87.3793 2.18 87.1327 2.08 86.9327 1.88C86.7327 1.68 86.6327 1.44 86.6327 1.16C86.6327 0.893333 86.7327 0.659999 86.9327 0.459999C87.1327 0.259999 87.3793 0.159999 87.6727 0.159999C87.966 0.159999 88.2127 0.259999 88.4127 0.459999C88.6127 0.646665 88.7127 0.873332 88.7127 1.14C88.7127 1.43333 88.6127 1.68 88.4127 1.88C88.2127 2.08 87.966 2.18 87.6727 2.18ZM99.7438 13.82V15H91.1838V14.06L97.8038 5.68H91.3038V4.48H99.6238V5.42L93.0038 13.82H99.7438ZM109.959 13.82V15H101.399V14.06L108.019 5.68H101.519V4.48H109.839V5.42L103.219 13.82H109.959ZM116.433 4.4C117.807 4.4 118.86 4.74667 119.593 5.44C120.327 6.12 120.693 7.13333 120.693 8.48V15H119.333V13.36C119.013 13.9067 118.54 14.3333 117.913 14.64C117.3 14.9467 116.567 15.1 115.713 15.1C114.54 15.1 113.607 14.82 112.913 14.26C112.22 13.7 111.873 12.96 111.873 12.04C111.873 11.1467 112.193 10.4267 112.833 9.88C113.487 9.33333 114.52 9.06 115.933 9.06H119.273V8.42C119.273 7.51333 119.02 6.82667 118.513 6.36C118.007 5.88 117.267 5.64 116.293 5.64C115.627 5.64 114.987 5.75333 114.373 5.98C113.76 6.19333 113.233 6.49333 112.793 6.88L112.153 5.82C112.687 5.36667 113.327 5.02 114.073 4.78C114.82 4.52667 115.607 4.4 116.433 4.4ZM115.933 13.98C116.733 13.98 117.42 13.8 117.993 13.44C118.567 13.0667 118.993 12.5333 119.273 11.84V10.12H115.973C114.173 10.12 113.273 10.7467 113.273 12C113.273 12.6133 113.507 13.1 113.973 13.46C114.44 13.8067 115.093 13.98 115.933 13.98ZM135.885 15.06C134.578 15.06 133.385 14.7467 132.305 14.12C131.238 13.4933 130.391 12.64 129.765 11.56C129.151 10.48 128.845 9.29333 128.845 8C128.845 6.70667 129.151 5.52 129.765 4.44C130.391 3.36 131.245 2.50667 132.325 1.88C133.405 1.25333 134.605 0.94 135.925 0.94C137.245 0.94 138.438 1.24667 139.505 1.86C140.585 2.47333 141.431 3.32 142.045 4.4C142.658 5.46667 142.965 6.65333 142.965 7.96C142.965 9.26667 142.651 10.4667 142.025 11.56C141.398 12.64 140.545 13.4933 139.465 14.12C138.385 14.7467 137.191 15.06 135.885 15.06ZM135.885 14.32C137.058 14.32 138.125 14.04 139.085 13.48C140.045 12.9067 140.805 12.14 141.365 11.18C141.925 10.2067 142.205 9.13333 142.205 7.96C142.205 6.78667 141.931 5.72667 141.385 4.78C140.838 3.82 140.085 3.06667 139.125 2.52C138.178 1.96 137.111 1.68 135.925 1.68C134.738 1.68 133.658 1.96 132.685 2.52C131.725 3.08 130.965 3.84667 130.405 4.82C129.858 5.78 129.585 6.84 129.585 8C129.585 9.16 129.858 10.2267 130.405 11.2C130.965 12.16 131.725 12.92 132.685 13.48C133.645 14.04 134.711 14.32 135.885 14.32ZM136.065 12.16C135.278 12.16 134.565 11.9867 133.925 11.64C133.298 11.28 132.805 10.7867 132.445 10.16C132.085 9.52 131.905 8.8 131.905 8C131.905 7.2 132.085 6.48667 132.445 5.86C132.805 5.22 133.298 4.72667 133.925 4.38C134.565 4.02 135.278 3.84 136.065 3.84C136.745 3.84 137.358 3.98 137.905 4.26C138.465 4.52667 138.911 4.9 139.245 5.38L138.385 6.02C138.105 5.63333 137.765 5.34667 137.365 5.16C136.965 4.97333 136.525 4.88 136.045 4.88C135.178 4.88 134.458 5.16667 133.885 5.74C133.325 6.31333 133.045 7.06667 133.045 8C133.045 8.93333 133.325 9.68667 133.885 10.26C134.458 10.8333 135.178 11.12 136.045 11.12C136.525 11.12 136.965 11.0267 137.365 10.84C137.765 10.6533 138.105 10.3667 138.385 9.98L139.245 10.6C138.911 11.0933 138.465 11.48 137.905 11.76C137.358 12.0267 136.745 12.16 136.065 12.16ZM159.811 13.72V15H149.991V13.98L155.811 8.28C156.544 7.56 157.038 6.94 157.291 6.42C157.558 5.88667 157.691 5.35333 157.691 4.82C157.691 3.99333 157.404 3.35333 156.831 2.9C156.271 2.43333 155.464 2.2 154.411 2.2C152.771 2.2 151.498 2.72 150.591 3.76L149.571 2.88C150.118 2.24 150.811 1.74667 151.651 1.4C152.504 1.05333 153.464 0.879999 154.531 0.879999C155.958 0.879999 157.084 1.22 157.911 1.9C158.751 2.56667 159.171 3.48667 159.171 4.66C159.171 5.38 159.011 6.07333 158.691 6.74C158.371 7.40667 157.764 8.17333 156.871 9.04L152.111 13.72H159.811ZM167.12 15.12C166.04 15.12 165.073 14.8333 164.22 14.26C163.38 13.6867 162.72 12.8667 162.24 11.8C161.773 10.72 161.54 9.45333 161.54 8C161.54 6.54667 161.773 5.28667 162.24 4.22C162.72 3.14 163.38 2.31333 164.22 1.74C165.073 1.16667 166.04 0.879999 167.12 0.879999C168.2 0.879999 169.16 1.16667 170 1.74C170.853 2.31333 171.52 3.14 172 4.22C172.48 5.28667 172.72 6.54667 172.72 8C172.72 9.45333 172.48 10.72 172 11.8C171.52 12.8667 170.853 13.6867 170 14.26C169.16 14.8333 168.2 15.12 167.12 15.12ZM167.12 13.8C167.933 13.8 168.647 13.5733 169.26 13.12C169.887 12.6667 170.373 12.0067 170.72 11.14C171.067 10.2733 171.24 9.22667 171.24 8C171.24 6.77333 171.067 5.72667 170.72 4.86C170.373 3.99333 169.887 3.33333 169.26 2.88C168.647 2.42667 167.933 2.2 167.12 2.2C166.307 2.2 165.587 2.42667 164.96 2.88C164.347 3.33333 163.867 3.99333 163.52 4.86C163.173 5.72667 163 6.77333 163 8C163 9.22667 163.173 10.2733 163.52 11.14C163.867 12.0067 164.347 12.6667 164.96 13.12C165.587 13.5733 166.307 13.8 167.12 13.8ZM184.303 13.72V15H174.483V13.98L180.303 8.28C181.036 7.56 181.53 6.94 181.783 6.42C182.05 5.88667 182.183 5.35333 182.183 4.82C182.183 3.99333 181.896 3.35333 181.323 2.9C180.763 2.43333 179.956 2.2 178.903 2.2C177.263 2.2 175.99 2.72 175.083 3.76L174.063 2.88C174.61 2.24 175.303 1.74667 176.143 1.4C176.996 1.05333 177.956 0.879999 179.023 0.879999C180.45 0.879999 181.576 1.22 182.403 1.9C183.243 2.56667 183.663 3.48667 183.663 4.66C183.663 5.38 183.503 6.07333 183.183 6.74C182.863 7.40667 182.256 8.17333 181.363 9.04L176.603 13.72H184.303ZM189.99 0.999999V15H188.55V2.28H185.25V0.999999H189.99ZM8.66 36.78C9.63333 36.98 10.3733 37.3733 10.88 37.96C11.3867 38.5333 11.64 39.2867 11.64 40.22C11.64 41.4333 11.2067 42.3667 10.34 43.02C9.48667 43.6733 8.22667 44 6.56 44H0.36V30H6.18C7.67333 30 8.84 30.3067 9.68 30.92C10.52 31.5333 10.94 32.42 10.94 33.58C10.94 34.3667 10.74 35.0333 10.34 35.58C9.94 36.1133 9.38 36.5133 8.66 36.78ZM1.82 36.34H6.1C7.18 36.34 8.00667 36.12 8.58 35.68C9.16667 35.24 9.46 34.6 9.46 33.76C9.46 32.92 9.16667 32.28 8.58 31.84C8.00667 31.4 7.18 31.18 6.1 31.18H1.82V36.34ZM6.56 42.82C8.97333 42.82 10.18 41.92 10.18 40.12C10.18 38.36 8.97333 37.48 6.56 37.48H1.82V42.82H6.56ZM19.4005 44.1C18.3605 44.1 17.4271 43.8733 16.6005 43.42C15.7871 42.9667 15.1471 42.3333 14.6805 41.52C14.2138 40.6933 13.9805 39.7667 13.9805 38.74C13.9805 37.7133 14.2138 36.7933 14.6805 35.98C15.1471 35.1667 15.7871 34.5333 16.6005 34.08C17.4271 33.6267 18.3605 33.4 19.4005 33.4C20.3071 33.4 21.1138 33.58 21.8205 33.94C22.5405 34.2867 23.1071 34.8 23.5205 35.48L22.4605 36.2C22.1138 35.68 21.6738 35.2933 21.1405 35.04C20.6071 34.7733 20.0271 34.64 19.4005 34.64C18.6405 34.64 17.9538 34.8133 17.3405 35.16C16.7405 35.4933 16.2671 35.9733 15.9205 36.6C15.5871 37.2267 15.4205 37.94 15.4205 38.74C15.4205 39.5533 15.5871 40.2733 15.9205 40.9C16.2671 41.5133 16.7405 41.9933 17.3405 42.34C17.9538 42.6733 18.6405 42.84 19.4005 42.84C20.0271 42.84 20.6071 42.7133 21.1405 42.46C21.6738 42.2067 22.1138 41.82 22.4605 41.3L23.5205 42.02C23.1071 42.7 22.5405 43.22 21.8205 43.58C21.1005 43.9267 20.2938 44.1 19.4005 44.1ZM35.2942 39.18H26.4942C26.5742 40.2733 26.9942 41.16 27.7542 41.84C28.5142 42.5067 29.4742 42.84 30.6342 42.84C31.2876 42.84 31.8876 42.7267 32.4342 42.5C32.9809 42.26 33.4542 41.9133 33.8542 41.46L34.6542 42.38C34.1876 42.94 33.6009 43.3667 32.8942 43.66C32.2009 43.9533 31.4342 44.1 30.5942 44.1C29.5142 44.1 28.5542 43.8733 27.7142 43.42C26.8876 42.9533 26.2409 42.3133 25.7742 41.5C25.3076 40.6867 25.0742 39.7667 25.0742 38.74C25.0742 37.7133 25.2942 36.7933 25.7342 35.98C26.1876 35.1667 26.8009 34.5333 27.5742 34.08C28.3609 33.6267 29.2409 33.4 30.2142 33.4C31.1876 33.4 32.0609 33.6267 32.8342 34.08C33.6076 34.5333 34.2142 35.1667 34.6542 35.98C35.0942 36.78 35.3142 37.7 35.3142 38.74L35.2942 39.18ZM30.2142 34.62C29.2009 34.62 28.3476 34.9467 27.6542 35.6C26.9742 36.24 26.5876 37.08 26.4942 38.12H33.9542C33.8609 37.08 33.4676 36.24 32.7742 35.6C32.0942 34.9467 31.2409 34.62 30.2142 34.62ZM53.1319 33.48V44H51.7119V34.74H45.1119V44H43.6919V33.48H53.1319ZM62.5884 33.4C63.5751 33.4 64.4684 33.6267 65.2684 34.08C66.0684 34.52 66.6951 35.1467 67.1484 35.96C67.6018 36.7733 67.8284 37.7 67.8284 38.74C67.8284 39.7933 67.6018 40.7267 67.1484 41.54C66.6951 42.3533 66.0684 42.9867 65.2684 43.44C64.4818 43.88 63.5884 44.1 62.5884 44.1C61.7351 44.1 60.9618 43.9267 60.2684 43.58C59.5884 43.22 59.0284 42.7 58.5884 42.02V47.88H57.1684V33.48H58.5284V35.56C58.9551 34.8667 59.5151 34.3333 60.2084 33.96C60.9151 33.5867 61.7084 33.4 62.5884 33.4ZM62.4884 42.84C63.2218 42.84 63.8884 42.6733 64.4884 42.34C65.0884 41.9933 65.5551 41.5067 65.8884 40.88C66.2351 40.2533 66.4084 39.54 66.4084 38.74C66.4084 37.94 66.2351 37.2333 65.8884 36.62C65.5551 35.9933 65.0884 35.5067 64.4884 35.16C63.8884 34.8133 63.2218 34.64 62.4884 34.64C61.7418 34.64 61.0684 34.8133 60.4684 35.16C59.8818 35.5067 59.4151 35.9933 59.0684 36.62C58.7351 37.2333 58.5684 37.94 58.5684 38.74C58.5684 39.54 58.7351 40.2533 59.0684 40.88C59.4151 41.5067 59.8818 41.9933 60.4684 42.34C61.0684 42.6733 61.7418 42.84 62.4884 42.84ZM74.4408 33.4C75.8141 33.4 76.8674 33.7467 77.6008 34.44C78.3341 35.12 78.7008 36.1333 78.7008 37.48V44H77.3408V42.36C77.0208 42.9067 76.5474 43.3333 75.9208 43.64C75.3074 43.9467 74.5741 44.1 73.7208 44.1C72.5474 44.1 71.6141 43.82 70.9208 43.26C70.2274 42.7 69.8808 41.96 69.8808 41.04C69.8808 40.1467 70.2008 39.4267 70.8408 38.88C71.4941 38.3333 72.5274 38.06 73.9408 38.06H77.2808V37.42C77.2808 36.5133 77.0274 35.8267 76.5208 35.36C76.0141 34.88 75.2741 34.64 74.3008 34.64C73.6341 34.64 72.9941 34.7533 72.3808 34.98C71.7674 35.1933 71.2408 35.4933 70.8008 35.88L70.1608 34.82C70.6941 34.3667 71.3341 34.02 72.0808 33.78C72.8274 33.5267 73.6141 33.4 74.4408 33.4ZM73.9408 42.98C74.7408 42.98 75.4274 42.8 76.0008 42.44C76.5741 42.0667 77.0008 41.5333 77.2808 40.84V39.12H73.9808C72.1808 39.12 71.2808 39.7467 71.2808 41C71.2808 41.6133 71.5141 42.1 71.9808 42.46C72.4474 42.8067 73.1008 42.98 73.9408 42.98ZM89.1809 38.56C90.6076 38.8933 91.3209 39.7533 91.3209 41.14C91.3209 42.06 90.9809 42.7667 90.3009 43.26C89.6209 43.7533 88.6076 44 87.2609 44H82.4809V33.48H87.1209C88.3209 33.48 89.2609 33.7133 89.9409 34.18C90.6209 34.6467 90.9609 35.3133 90.9609 36.18C90.9609 36.7533 90.8009 37.2467 90.4809 37.66C90.1743 38.06 89.7409 38.36 89.1809 38.56ZM83.8609 38.16H87.0209C87.8343 38.16 88.4543 38.0067 88.8809 37.7C89.3209 37.3933 89.5409 36.9467 89.5409 36.36C89.5409 35.7733 89.3209 35.3333 88.8809 35.04C88.4543 34.7467 87.8343 34.6 87.0209 34.6H83.8609V38.16ZM87.2009 42.88C88.1076 42.88 88.7876 42.7333 89.2409 42.44C89.6943 42.1467 89.9209 41.6867 89.9209 41.06C89.9209 40.4333 89.7143 39.9733 89.3009 39.68C88.8876 39.3733 88.2343 39.22 87.3409 39.22H83.8609V42.88H87.2009ZM98.2689 33.4C99.6422 33.4 100.696 33.7467 101.429 34.44C102.162 35.12 102.529 36.1333 102.529 37.48V44H101.169V42.36C100.849 42.9067 100.376 43.3333 99.7489 43.64C99.1356 43.9467 98.4022 44.1 97.5489 44.1C96.3756 44.1 95.4422 43.82 94.7489 43.26C94.0556 42.7 93.7089 41.96 93.7089 41.04C93.7089 40.1467 94.0289 39.4267 94.6689 38.88C95.3222 38.3333 96.3556 38.06 97.7689 38.06H101.109V37.42C101.109 36.5133 100.856 35.8267 100.349 35.36C99.8422 34.88 99.1022 34.64 98.1289 34.64C97.4622 34.64 96.8222 34.7533 96.2089 34.98C95.5956 35.1933 95.0689 35.4933 94.6289 35.88L93.9889 34.82C94.5222 34.3667 95.1622 34.02 95.9089 33.78C96.6556 33.5267 97.4422 33.4 98.2689 33.4ZM97.7689 42.98C98.5689 42.98 99.2556 42.8 99.8289 42.44C100.402 42.0667 100.829 41.5333 101.109 40.84V39.12H97.8089C96.0089 39.12 95.1089 39.7467 95.1089 41C95.1089 41.6133 95.3422 42.1 95.8089 42.46C96.2756 42.8067 96.9289 42.98 97.7689 42.98ZM116.663 38.52C117.41 38.6933 117.983 38.9933 118.383 39.42C118.797 39.8467 119.003 40.3667 119.003 40.98C119.003 41.5933 118.79 42.14 118.363 42.62C117.95 43.1 117.383 43.4733 116.663 43.74C115.943 43.9933 115.15 44.12 114.283 44.12C113.523 44.12 112.777 44.0133 112.043 43.8C111.31 43.5733 110.67 43.2467 110.123 42.82L110.603 41.76C111.083 42.12 111.643 42.4 112.283 42.6C112.923 42.8 113.57 42.9 114.223 42.9C115.197 42.9 115.99 42.72 116.603 42.36C117.23 41.9867 117.543 41.4867 117.543 40.86C117.543 40.3 117.29 39.8667 116.783 39.56C116.277 39.24 115.583 39.08 114.703 39.08H112.903V38.04H114.623C115.41 38.04 116.043 37.8933 116.523 37.6C117.003 37.2933 117.243 36.8867 117.243 36.38C117.243 35.82 116.97 35.38 116.423 35.06C115.89 34.74 115.19 34.58 114.323 34.58C113.19 34.58 112.07 34.8667 110.963 35.44L110.563 34.34C111.817 33.6867 113.117 33.36 114.463 33.36C115.263 33.36 115.983 33.48 116.623 33.72C117.277 33.9467 117.783 34.2733 118.143 34.7C118.517 35.1267 118.703 35.62 118.703 36.18C118.703 36.7133 118.517 37.1867 118.143 37.6C117.783 38.0133 117.29 38.32 116.663 38.52ZM125.847 33.4C127.22 33.4 128.274 33.7467 129.007 34.44C129.74 35.12 130.107 36.1333 130.107 37.48V44H128.747V42.36C128.427 42.9067 127.954 43.3333 127.327 43.64C126.714 43.9467 125.98 44.1 125.127 44.1C123.954 44.1 123.02 43.82 122.327 43.26C121.634 42.7 121.287 41.96 121.287 41.04C121.287 40.1467 121.607 39.4267 122.247 38.88C122.9 38.3333 123.934 38.06 125.347 38.06H128.687V37.42C128.687 36.5133 128.434 35.8267 127.927 35.36C127.42 34.88 126.68 34.64 125.707 34.64C125.04 34.64 124.4 34.7533 123.787 34.98C123.174 35.1933 122.647 35.4933 122.207 35.88L121.567 34.82C122.1 34.3667 122.74 34.02 123.487 33.78C124.234 33.5267 125.02 33.4 125.847 33.4ZM125.347 42.98C126.147 42.98 126.834 42.8 127.407 42.44C127.98 42.0667 128.407 41.5333 128.687 40.84V39.12H125.387C123.587 39.12 122.687 39.7467 122.687 41C122.687 41.6133 122.92 42.1 123.387 42.46C123.854 42.8067 124.507 42.98 125.347 42.98ZM148.407 33.48V44H133.887V33.48H135.307V42.76H140.467V33.48H141.887V42.76H146.987V33.48H148.407ZM150.027 42.76V46.3H148.687V44H146.907V42.76H150.027ZM152.461 33.48H153.881V41.84L160.901 33.48H162.161V44H160.741V35.64L153.741 44H152.461V33.48ZM180.751 33.48V44H166.231V33.48H167.651V42.76H172.811V33.48H174.231V42.76H179.331V33.48H180.751ZM182.371 42.76V46.3H181.031V44H179.251V42.76H182.371ZM194.005 39.18H185.205C185.285 40.2733 185.705 41.16 186.465 41.84C187.225 42.5067 188.185 42.84 189.345 42.84C189.998 42.84 190.598 42.7267 191.145 42.5C191.692 42.26 192.165 41.9133 192.565 41.46L193.365 42.38C192.898 42.94 192.312 43.3667 191.605 43.66C190.912 43.9533 190.145 44.1 189.305 44.1C188.225 44.1 187.265 43.8733 186.425 43.42C185.598 42.9533 184.952 42.3133 184.485 41.5C184.018 40.6867 183.785 39.7667 183.785 38.74C183.785 37.7133 184.005 36.7933 184.445 35.98C184.898 35.1667 185.512 34.5333 186.285 34.08C187.072 33.6267 187.952 33.4 188.925 33.4C189.898 33.4 190.772 33.6267 191.545 34.08C192.318 34.5333 192.925 35.1667 193.365 35.98C193.805 36.78 194.025 37.7 194.025 38.74L194.005 39.18ZM188.925 34.62C187.912 34.62 187.058 34.9467 186.365 35.6C185.685 36.24 185.298 37.08 185.205 38.12H192.665C192.572 37.08 192.178 36.24 191.485 35.6C190.805 34.9467 189.952 34.62 188.925 34.62ZM197.168 33.48H198.588V38.14H205.208V33.48H206.628V44H205.208V39.36H198.588V44H197.168V33.48ZM215.085 37.2C216.405 37.2133 217.411 37.5067 218.105 38.08C218.798 38.6533 219.145 39.48 219.145 40.56C219.145 41.68 218.771 42.54 218.025 43.14C217.278 43.74 216.211 44.0333 214.825 44.02L210.665 44V33.48H212.085V37.16L215.085 37.2ZM220.905 33.48H222.325V44H220.905V33.48ZM214.745 42.94C215.718 42.9533 216.451 42.76 216.945 42.36C217.451 41.9467 217.705 41.3467 217.705 40.56C217.705 39.7867 217.458 39.2133 216.965 38.84C216.471 38.4667 215.731 38.2733 214.745 38.26L212.085 38.22V42.9L214.745 42.94Z" fill="white"/>
</svg>
