<svg width="408" height="187" viewBox="0 0 408 187" fill="none" xmlns="http://www.w3.org/2000/svg">
<g filter="url(#filter0_d)">
<path d="M50 70C50 58.9543 58.9543 50 70 50H308.685C313.272 50 317.719 51.5763 321.281 54.4649L349.77 77.5635C359.642 85.5678 359.642 100.629 349.77 108.634L321.281 131.732C317.719 134.621 313.272 136.197 308.685 136.197H70C58.9543 136.197 50 127.243 50 116.197V70Z" fill="#FFD569"/>
<path d="M50 70C50 58.9543 58.9543 50 70 50H308.685C313.272 50 317.719 51.5763 321.281 54.4649L349.77 77.5635C359.642 85.5678 359.642 100.629 349.77 108.634L321.281 131.732C317.719 134.621 313.272 136.197 308.685 136.197H70C58.9543 136.197 50 127.243 50 116.197V70Z" fill="url(#paint0_linear)"/>
</g>
<path d="M108.228 92.385C110.108 92.9803 111.581 93.983 112.646 95.393C113.711 96.7716 114.244 98.4793 114.244 100.516C114.244 103.399 113.116 105.623 110.86 107.19C108.635 108.725 105.377 109.493 101.084 109.493H84.0699V76.593H100.144C104.155 76.593 107.225 77.3606 109.356 78.896C111.518 80.4313 112.599 82.515 112.599 85.147C112.599 86.745 112.207 88.1706 111.424 89.424C110.672 90.6773 109.607 91.6643 108.228 92.385ZM91.6369 82.327V90.082H99.2039C101.084 90.082 102.51 89.753 103.481 89.095C104.452 88.437 104.938 87.4656 104.938 86.181C104.938 84.8963 104.452 83.9406 103.481 83.314C102.51 82.656 101.084 82.327 99.2039 82.327H91.6369ZM100.52 103.759C102.525 103.759 104.029 103.43 105.032 102.772C106.066 102.114 106.583 101.096 106.583 99.717C106.583 96.991 104.562 95.628 100.52 95.628H91.6369V103.759H100.52ZM140.97 109.493L134.625 100.328H134.249H127.622V109.493H120.008V76.593H134.249C137.163 76.593 139.686 77.0786 141.816 78.05C143.978 79.0213 145.639 80.4 146.798 82.186C147.958 83.972 148.537 86.087 148.537 88.531C148.537 90.975 147.942 93.09 146.751 94.876C145.592 96.6306 143.931 97.978 141.769 98.918L149.148 109.493H140.97ZM140.829 88.531C140.829 86.6823 140.234 85.2723 139.043 84.301C137.853 83.2983 136.114 82.797 133.826 82.797H127.622V94.265H133.826C136.114 94.265 137.853 93.7636 139.043 92.761C140.234 91.7583 140.829 90.3483 140.829 88.531ZM176.237 102.443H160.962L158.048 109.493H150.246L164.91 76.593H172.43L187.141 109.493H179.151L176.237 102.443ZM173.84 96.662L168.623 84.066L163.406 96.662H173.84ZM195.717 82.797H185.189V76.593H213.859V82.797H203.331V109.493H195.717V82.797ZM237.97 102.443H222.695L219.781 109.493H211.979L226.643 76.593H234.163L248.874 109.493H240.884L237.97 102.443ZM235.573 96.662L230.356 84.066L225.139 96.662H235.573ZM282.462 76.593V109.493H276.211L259.808 89.518V109.493H252.288V76.593H258.586L274.942 96.568V76.593H282.462Z" fill="#6C4AF1"/>
<defs>
<filter id="filter0_d" x="0" y="0" width="407.174" height="186.197" filterUnits="userSpaceOnUse" color-interpolation-filters="sRGB">
<feFlood flood-opacity="0" result="BackgroundImageFix"/>
<feColorMatrix in="SourceAlpha" type="matrix" values="0 0 0 0 0 0 0 0 0 0 0 0 0 0 0 0 0 0 127 0"/>
<feOffset/>
<feGaussianBlur stdDeviation="25"/>
<feColorMatrix type="matrix" values="0 0 0 0 0.833333 0 0 0 0 0.303472 0 0 0 0 0.0763888 0 0 0 1 0"/>
<feBlend mode="normal" in2="BackgroundImageFix" result="effect1_dropShadow"/>
<feBlend mode="normal" in="SourceGraphic" in2="effect1_dropShadow" result="shape"/>
</filter>
<linearGradient id="paint0_linear" x1="133.324" y1="-12.1338" x2="209.465" y2="136.197" gradientUnits="userSpaceOnUse">
<stop stop-color="white"/>
<stop offset="1" stop-color="white" stop-opacity="0"/>
</linearGradient>
</defs>
</svg>
