<svg width="34" height="34" viewBox="0 0 34 34" fill="none" xmlns="http://www.w3.org/2000/svg">
<path fill-rule="evenodd" clip-rule="evenodd" d="M4.23572 6.90415C4.68385 6.16073 7.15439 3.46201 8.9149 3.54348C9.4416 3.58858 9.90719 3.90573 10.2855 4.27526H10.2869C11.1541 5.12488 13.6421 8.33134 13.7818 9.00639C14.1266 10.662 12.1522 11.6164 12.756 13.2851C14.2954 17.0516 16.9478 19.7038 20.7162 21.2416C22.3836 21.8468 23.338 19.874 24.9938 20.2174C25.6689 20.3585 28.8771 22.8448 29.7253 23.7133V23.7133C30.0934 24.0901 30.4135 24.5571 30.4572 25.0838C30.5227 26.9387 27.6564 29.4425 27.0977 29.7625C25.7795 30.7067 24.0597 30.6893 21.9631 29.7145C16.1126 27.2806 6.763 18.1078 4.28373 12.0368C3.33509 9.95203 3.27107 8.22078 4.23572 6.90415Z" stroke="white" stroke-width="1.5" stroke-linecap="round" stroke-linejoin="round"/>
<path d="M20.6343 3.89584C25.8788 4.47809 30.0197 8.61476 30.609 13.8578" stroke="white" stroke-width="1.5" stroke-linecap="round" stroke-linejoin="round"/>
<path d="M20.6343 8.91508C23.1418 9.40383 25.101 11.3631 25.5898 13.8706" stroke="white" stroke-width="1.5" stroke-linecap="round" stroke-linejoin="round"/>
</svg>
