<svg width="30" height="30" viewBox="0 0 30 30" fill="none" xmlns="http://www.w3.org/2000/svg">
<path fill-rule="evenodd" clip-rule="evenodd" d="M3.73743 6.09189C4.13284 5.43593 6.31273 3.05471 7.86612 3.12659C8.33086 3.16639 8.74167 3.44623 9.07546 3.77228H9.07674C9.84189 4.52195 12.0372 7.35118 12.1604 7.94681C12.4647 9.40763 10.7226 10.2497 11.2553 11.7221C12.6136 15.0456 14.954 17.3857 18.279 18.7425C19.7502 19.2766 20.5924 17.5359 22.0534 17.8388C22.649 17.9634 25.4798 20.1572 26.2283 20.9235V20.9235C26.5531 21.256 26.8355 21.668 26.874 22.1327C26.9318 23.7694 24.4027 25.9786 23.9097 26.2611C22.7466 27.0942 21.2292 27.0788 19.3792 26.2187C14.2171 24.0711 5.96739 15.9775 3.7798 10.6207C2.94276 8.7812 2.88627 7.25362 3.73743 6.09189Z" stroke="white" stroke-width="1.5" stroke-linecap="round" stroke-linejoin="round"/>
<path d="M18.2068 3.4375C22.8343 3.95125 26.488 7.60125 27.008 12.2275" stroke="white" stroke-width="1.5" stroke-linecap="round" stroke-linejoin="round"/>
<path d="M18.2068 7.86626C20.4193 8.29751 22.148 10.0263 22.5793 12.2388" stroke="white" stroke-width="1.5" stroke-linecap="round" stroke-linejoin="round"/>
</svg>
