<svg width="34" height="34" viewBox="0 0 34 34" fill="none" xmlns="http://www.w3.org/2000/svg">
<path d="M12.9727 29.4261V25.0816C12.9727 23.9766 13.8736 23.0787 14.9898 23.0713H19.0784C20.1999 23.0713 21.1091 23.9713 21.1091 25.0816V25.0816V29.4396C21.1088 30.3779 21.8652 31.1447 22.8127 31.1667H25.5384C28.2556 31.1667 30.4584 28.986 30.4584 26.2959V26.2959V13.9369C30.4438 12.8787 29.9419 11.8849 29.0955 11.2385L19.7735 3.80417C18.1403 2.50971 15.8188 2.50971 14.1857 3.80417L4.90456 11.252C4.05489 11.8958 3.55215 12.8912 3.54169 13.9504V26.2959C3.54169 28.986 5.74443 31.1667 8.46165 31.1667H11.1874C12.1584 31.1667 12.9455 30.3874 12.9455 29.4261V29.4261" stroke="white" stroke-width="1.5" stroke-linecap="round" stroke-linejoin="round"/>
</svg>
