<svg width="298" height="48" viewBox="0 0 298 48" fill="none" xmlns="http://www.w3.org/2000/svg">
<path d="M57.04 18.344C58.84 18.344 60.472 18.764 61.936 19.604C63.424 20.42 64.588 21.584 65.428 23.096C66.268 24.584 66.688 26.324 66.688 28.316C66.688 30.308 66.268 32.06 65.428 33.572C64.588 35.06 63.424 36.224 61.936 37.064C60.472 37.88 58.84 38.288 57.04 38.288C54.376 38.288 52.348 37.448 50.956 35.768V38H45.592V11.288H51.208V20.684C52.624 19.124 54.568 18.344 57.04 18.344ZM56.068 33.68C57.508 33.68 58.684 33.2 59.596 32.24C60.532 31.256 61 29.948 61 28.316C61 26.684 60.532 25.388 59.596 24.428C58.684 23.444 57.508 22.952 56.068 22.952C54.628 22.952 53.44 23.444 52.504 24.428C51.592 25.388 51.136 26.684 51.136 28.316C51.136 29.948 51.592 31.256 52.504 32.24C53.44 33.2 54.628 33.68 56.068 33.68ZM75.8115 21.188C76.4835 20.252 77.3835 19.544 78.5115 19.064C79.6635 18.584 80.9835 18.344 82.4715 18.344V23.528C81.8475 23.48 81.4275 23.456 81.2115 23.456C79.6035 23.456 78.3435 23.912 77.4315 24.824C76.5195 25.712 76.0635 27.056 76.0635 28.856V38H70.4475V18.632H75.8115V21.188ZM93.5173 18.344C96.5173 18.344 98.8213 19.064 100.429 20.504C102.037 21.92 102.841 24.068 102.841 26.948V38H97.5853V35.588C96.5293 37.388 94.5613 38.288 91.6813 38.288C90.1933 38.288 88.8973 38.036 87.7933 37.532C86.7133 37.028 85.8853 36.332 85.3093 35.444C84.7333 34.556 84.4453 33.548 84.4453 32.42C84.4453 30.62 85.1173 29.204 86.4613 28.172C87.8293 27.14 89.9293 26.624 92.7613 26.624H97.2253C97.2253 25.4 96.8533 24.464 96.1093 23.816C95.3653 23.144 94.2493 22.808 92.7613 22.808C91.7293 22.808 90.7093 22.976 89.7013 23.312C88.7173 23.624 87.8773 24.056 87.1813 24.608L85.1653 20.684C86.2213 19.94 87.4813 19.364 88.9453 18.956C90.4333 18.548 91.9573 18.344 93.5173 18.344ZM93.0853 34.508C94.0453 34.508 94.8973 34.292 95.6413 33.86C96.3853 33.404 96.9133 32.744 97.2253 31.88V29.9H93.3733C91.0693 29.9 89.9173 30.656 89.9173 32.168C89.9173 32.888 90.1933 33.464 90.7453 33.896C91.3213 34.304 92.1013 34.508 93.0853 34.508ZM120.416 37.064C119.864 37.472 119.18 37.784 118.364 38C117.572 38.192 116.732 38.288 115.844 38.288C113.54 38.288 111.752 37.7 110.48 36.524C109.232 35.348 108.608 33.62 108.608 31.34V23.384H105.62V19.064H108.608V14.348H114.224V19.064H119.048V23.384H114.224V31.268C114.224 32.084 114.428 32.72 114.836 33.176C115.268 33.608 115.868 33.824 116.636 33.824C117.524 33.824 118.28 33.584 118.904 33.104L120.416 37.064ZM131.381 18.344C134.381 18.344 136.685 19.064 138.293 20.504C139.901 21.92 140.705 24.068 140.705 26.948V38H135.449V35.588C134.393 37.388 132.425 38.288 129.545 38.288C128.057 38.288 126.761 38.036 125.657 37.532C124.577 37.028 123.749 36.332 123.173 35.444C122.597 34.556 122.309 33.548 122.309 32.42C122.309 30.62 122.981 29.204 124.325 28.172C125.693 27.14 127.793 26.624 130.625 26.624H135.089C135.089 25.4 134.717 24.464 133.973 23.816C133.229 23.144 132.113 22.808 130.625 22.808C129.593 22.808 128.573 22.976 127.565 23.312C126.581 23.624 125.741 24.056 125.045 24.608L123.029 20.684C124.085 19.94 125.345 19.364 126.809 18.956C128.297 18.548 129.821 18.344 131.381 18.344ZM130.949 34.508C131.909 34.508 132.761 34.292 133.505 33.86C134.249 33.404 134.777 32.744 135.089 31.88V29.9H131.237C128.933 29.9 127.781 30.656 127.781 32.168C127.781 32.888 128.057 33.464 128.609 33.896C129.185 34.304 129.965 34.508 130.949 34.508ZM153.599 18.344C156.599 18.344 158.903 19.064 160.511 20.504C162.119 21.92 162.923 24.068 162.923 26.948V38H157.667V35.588C156.611 37.388 154.643 38.288 151.763 38.288C150.275 38.288 148.979 38.036 147.875 37.532C146.795 37.028 145.967 36.332 145.391 35.444C144.815 34.556 144.527 33.548 144.527 32.42C144.527 30.62 145.199 29.204 146.543 28.172C147.911 27.14 150.011 26.624 152.843 26.624H157.307C157.307 25.4 156.935 24.464 156.191 23.816C155.447 23.144 154.331 22.808 152.843 22.808C151.811 22.808 150.791 22.976 149.783 23.312C148.799 23.624 147.959 24.056 147.263 24.608L145.247 20.684C146.303 19.94 147.563 19.364 149.027 18.956C150.515 18.548 152.039 18.344 153.599 18.344ZM153.167 34.508C154.127 34.508 154.979 34.292 155.723 33.86C156.467 33.404 156.995 32.744 157.307 31.88V29.9H153.455C151.151 29.9 149.999 30.656 149.999 32.168C149.999 32.888 150.275 33.464 150.827 33.896C151.403 34.304 152.183 34.508 153.167 34.508ZM179.778 18.344C182.178 18.344 184.11 19.064 185.574 20.504C187.062 21.944 187.806 24.08 187.806 26.912V38H182.19V27.776C182.19 26.24 181.854 25.1 181.182 24.356C180.51 23.588 179.538 23.204 178.266 23.204C176.85 23.204 175.722 23.648 174.882 24.536C174.042 25.4 173.622 26.696 173.622 28.424V38H168.006V18.632H173.37V20.9C174.114 20.084 175.038 19.46 176.142 19.028C177.246 18.572 178.458 18.344 179.778 18.344ZM214.54 18.344C216.34 18.344 217.972 18.764 219.436 19.604C220.924 20.42 222.088 21.584 222.928 23.096C223.768 24.584 224.188 26.324 224.188 28.316C224.188 30.308 223.768 32.06 222.928 33.572C222.088 35.06 220.924 36.224 219.436 37.064C217.972 37.88 216.34 38.288 214.54 38.288C212.068 38.288 210.124 37.508 208.708 35.948V44.984H203.092V18.632H208.456V20.864C209.848 19.184 211.876 18.344 214.54 18.344ZM213.568 33.68C215.008 33.68 216.184 33.2 217.096 32.24C218.032 31.256 218.5 29.948 218.5 28.316C218.5 26.684 218.032 25.388 217.096 24.428C216.184 23.444 215.008 22.952 213.568 22.952C212.128 22.952 210.94 23.444 210.004 24.428C209.092 25.388 208.636 26.684 208.636 28.316C208.636 29.948 209.092 31.256 210.004 32.24C210.94 33.2 212.128 33.68 213.568 33.68ZM227.947 18.632H233.563V38H227.947V18.632ZM230.755 15.932C229.723 15.932 228.883 15.632 228.235 15.032C227.587 14.432 227.263 13.688 227.263 12.8C227.263 11.912 227.587 11.168 228.235 10.568C228.883 9.968 229.723 9.668 230.755 9.668C231.787 9.668 232.627 9.956 233.275 10.532C233.923 11.108 234.247 11.828 234.247 12.692C234.247 13.628 233.923 14.408 233.275 15.032C232.627 15.632 231.787 15.932 230.755 15.932ZM254.724 33.68V38H237.444V34.616L247.308 22.952H237.696V18.632H254.4V22.016L244.536 33.68H254.724ZM274.27 33.68V38H256.99V34.616L266.854 22.952H257.242V18.632H273.946V22.016L264.082 33.68H274.27ZM285.681 18.344C288.681 18.344 290.985 19.064 292.593 20.504C294.201 21.92 295.005 24.068 295.005 26.948V38H289.749V35.588C288.693 37.388 286.725 38.288 283.845 38.288C282.357 38.288 281.061 38.036 279.957 37.532C278.877 37.028 278.049 36.332 277.473 35.444C276.897 34.556 276.609 33.548 276.609 32.42C276.609 30.62 277.281 29.204 278.625 28.172C279.993 27.14 282.093 26.624 284.925 26.624H289.389C289.389 25.4 289.017 24.464 288.273 23.816C287.529 23.144 286.413 22.808 284.925 22.808C283.893 22.808 282.873 22.976 281.865 23.312C280.881 23.624 280.041 24.056 279.345 24.608L277.329 20.684C278.385 19.94 279.645 19.364 281.109 18.956C282.597 18.548 284.121 18.344 285.681 18.344ZM285.249 34.508C286.209 34.508 287.061 34.292 287.805 33.86C288.549 33.404 289.077 32.744 289.389 31.88V29.9H285.537C283.233 29.9 282.081 30.656 282.081 32.168C282.081 32.888 282.357 33.464 282.909 33.896C283.485 34.304 284.265 34.508 285.249 34.508Z" fill="white"/>
<path d="M7.20673 15.5625V19.8824C6.26351 20.2109 5.48679 20.9018 5.0502 21.8357L3.19751 25.8081C2.00267 28.3719 2.5797 31.4017 4.63367 33.3471L10.0192 38.4462V47.0625C10.0192 47.5803 10.439 48 10.9567 48H15.1755C15.6932 48 16.113 47.5803 16.113 47.0625C16.113 46.5447 15.6932 46.125 15.1755 46.125H11.8942V38.0428C11.8942 37.7853 11.7883 37.5391 11.6013 37.3621L5.92301 31.9856C4.45582 30.596 4.04351 28.4317 4.89701 26.6003L6.74914 22.629C7.19867 21.6675 8.32207 21.2919 9.24148 21.7212L18.5027 26.0393C17.2047 27.7922 14.8063 28.454 12.7546 27.4976L10.2055 26.3089C9.7362 26.0899 9.17839 26.2931 8.95967 26.7622C8.74076 27.2315 8.94382 27.7893 9.41304 28.0082L11.9622 29.197C13.0071 29.6842 14.1812 29.901 15.3937 29.7766C17.372 31.9138 18.4567 34.6757 18.4567 37.605C18.4567 38.1228 18.8765 38.5425 19.3942 38.5425C19.9119 38.5425 20.3317 38.1228 20.3317 37.605C20.3317 34.527 19.3013 31.6081 17.405 29.2403C18.8013 28.6193 19.9885 27.5122 20.6835 26.0219L20.6844 26.0197C21.1501 26.2273 21.6649 26.3438 22.2067 26.3438C23.0437 26.3438 23.8175 26.0679 24.4422 25.6026C25.0443 26.8708 26.3371 27.75 27.8317 27.75C28.4091 27.75 28.9564 27.6186 29.4454 27.3845C29.1868 29.0675 28.7679 30.6021 28.3337 32.1902C27.626 34.7782 26.8942 37.4543 26.8942 40.875V46.125H23.613C23.0953 46.125 22.6755 46.5447 22.6755 47.0625C22.6755 47.5803 23.0953 48 23.613 48H27.8317C28.3494 48 28.7692 47.5803 28.7692 47.0625V40.875C28.7692 37.7061 29.4362 35.267 30.1423 32.6848C30.8499 30.0968 31.5817 27.4207 31.5817 24V18.375C31.5817 16.3073 29.8995 14.625 27.8317 14.625C26.9947 14.625 26.2209 14.9008 25.5963 15.3662C24.9942 14.0979 23.7014 13.2188 22.2067 13.2188C21.3697 13.2188 20.5959 13.4946 19.9713 13.9599C19.3692 12.6917 18.0764 11.8125 16.5817 11.8125C15.4625 11.8125 14.4569 12.306 13.7692 13.0861C13.0816 12.306 12.0759 11.8125 10.9567 11.8125C8.88898 11.8125 7.20673 13.4948 7.20673 15.5625ZM25.9567 18.375C25.9567 17.3411 26.7979 16.5 27.8317 16.5C28.8656 16.5 29.7067 17.3411 29.7067 18.375V24C29.7067 25.0339 28.8656 25.875 27.8317 25.875C26.7979 25.875 25.9567 25.0339 25.9567 24V18.375ZM20.3317 16.9688C20.3317 15.9349 21.1729 15.0938 22.2067 15.0938C23.2406 15.0938 24.0817 15.9349 24.0817 16.9688V22.5938C24.0817 23.6276 23.2406 24.4688 22.2067 24.4688C21.1729 24.4688 20.3317 23.6276 20.3317 22.5938V16.9688ZM14.7067 15.5625C14.7067 14.5286 15.5479 13.6875 16.5817 13.6875C17.6156 13.6875 18.4567 14.5286 18.4567 15.5625V22.5938C18.4567 23.1278 18.5697 23.6357 18.7718 24.096L14.7067 22.2007V15.5625ZM9.08173 15.5625C9.08173 14.5286 9.92286 13.6875 10.9567 13.6875C11.9906 13.6875 12.8317 14.5286 12.8317 15.5625V21.3264L10.0343 20.0222C9.72983 19.88 9.40929 19.7806 9.08173 19.7243V15.5625Z" fill="white"/>
<path d="M20 4.10714V0.892857C20 0.399732 19.5522 0 19 0C18.4478 0 18 0.399732 18 0.892857V4.10714C18 4.60027 18.4478 5 19 5C19.5522 5 20 4.60027 20 4.10714Z" fill="white"/>
<path d="M11.4254 7.38572C11.8738 7.12688 12.0275 6.5536 11.7687 6.1051L10.3624 3.66853C10.1036 3.22003 9.53023 3.06628 9.08182 3.32513C8.63342 3.58397 8.47967 4.15725 8.73851 4.60575L10.1448 7.04231C10.4028 7.48941 10.9758 7.64531 11.4254 7.38572Z" fill="white"/>
<path d="M3.84289 11.938L1.40632 10.5318C0.95745 10.2728 0.384356 10.4267 0.1257 10.8752C-0.133144 11.3236 0.0206062 11.897 0.469012 12.1558L2.90558 13.5621C3.35211 13.8197 3.92633 13.6691 4.1862 13.2186C4.44504 12.7701 4.29129 12.1969 3.84289 11.938Z" fill="white"/>
<path d="M28.6437 7.0424L30.0499 4.60584C30.3088 4.15744 30.155 3.58406 29.7066 3.32522C29.2579 3.06628 28.6849 3.22022 28.426 3.66862L27.0198 6.10519C26.7609 6.55359 26.9147 7.12697 27.3631 7.38581C27.8097 7.64334 28.3837 7.49278 28.6437 7.0424Z" fill="white"/>
<path d="M35.8829 13.562L38.3194 12.1557C38.7679 11.8969 38.9216 11.3236 38.6628 10.8751C38.4038 10.4267 37.8306 10.2728 37.3821 10.5317L34.9456 11.9379C34.4972 12.1968 34.3434 12.7701 34.6023 13.2186C34.8603 13.6657 35.4333 13.8216 35.8829 13.562Z" fill="white"/>
<path d="M19.3942 48C19.912 48 20.3317 47.5803 20.3317 47.0625C20.3317 46.5447 19.912 46.125 19.3942 46.125C18.8765 46.125 18.4567 46.5447 18.4567 47.0625C18.4567 47.5803 18.8765 48 19.3942 48Z" fill="white"/>
</svg>
