<svg width="15" height="14" viewBox="0 0 15 14" fill="none" xmlns="http://www.w3.org/2000/svg">
<g clip-path="url(#clip0)">
<path d="M6.2112 8.20286C4.77947 6.86658 4.4562 5.53031 4.38326 4.99493C4.36288 4.84689 4.41747 4.69844 4.53094 4.59327L5.68956 3.51238C5.85999 3.3534 5.89024 3.10565 5.76249 2.91496L3.91775 0.241445C3.77642 0.0302982 3.48622 -0.0459068 3.24766 0.0654796L0.286195 1.36724C0.0932788 1.4559 -0.0201917 1.6472 0.0017118 1.84686C0.156884 3.22272 0.799557 6.60493 4.36076 9.92896C7.92197 13.253 11.5452 13.8526 13.0202 13.9974C13.2341 14.0179 13.439 13.9119 13.534 13.7319L14.9288 10.9679C15.0477 10.7457 14.9666 10.4756 14.7413 10.3434L11.8768 8.62213C11.6726 8.50278 11.4072 8.5308 11.2367 8.68972L10.0786 9.7711C9.96593 9.877 9.80687 9.92795 9.64826 9.90893C9.07464 9.84086 7.64292 9.53913 6.2112 8.20286Z" fill="white"/>
<path d="M11.8965 7.48279C11.6108 7.48279 11.3792 7.26665 11.3792 7.00003C11.3768 5.00131 9.64139 3.3816 7.49991 3.37934C7.21424 3.37934 6.98267 3.1632 6.98267 2.89658C6.98267 2.62996 7.21424 2.41382 7.49991 2.41382C10.2125 2.41661 12.4107 4.46829 12.4137 7.00003C12.4137 7.26665 12.1821 7.48279 11.8965 7.48279Z" fill="white"/>
<path d="M14.4827 7.48276C14.197 7.48276 13.9654 7.26662 13.9654 7C13.9614 3.66879 11.0691 0.969242 7.49991 0.965517C7.21424 0.965517 6.98267 0.749379 6.98267 0.482759C6.98267 0.216138 7.21424 0 7.49991 0C11.6402 0.00425693 14.9954 3.13577 14.9999 7C14.9999 7.12804 14.9454 7.25083 14.8484 7.34136C14.7514 7.4319 14.6199 7.48276 14.4827 7.48276Z" fill="white"/>
</g>
<defs>
<clipPath id="clip0">
<rect width="15" height="14" fill="white"/>
</clipPath>
</defs>
</svg>
