<svg width="34" height="34" viewBox="0 0 34 34" fill="none" xmlns="http://www.w3.org/2000/svg">
<g clip-path="url(#clip0)">
<path d="M33.8034 0.191553C33.622 0.0125223 33.3538 -0.0472432 33.1139 0.0386863L5.53187 9.87324C4.57363 9.28727 3.3582 9.15008 2.24344 9.61166C0.39303 10.3782 -0.488911 12.5072 0.277549 14.3578C2.08506 18.7212 4.69475 22.627 8.03438 25.9666C11.374 29.3063 15.2798 31.916 19.6432 33.7235C20.0964 33.9111 20.5661 34 21.0285 34C22.4546 33.9999 23.8106 33.1549 24.3893 31.7575C24.7787 30.8173 24.7419 29.8054 24.3694 28.9366L33.9652 0.879056C34.0477 0.637869 33.9848 0.370651 33.8034 0.191553ZM9.70815 9.79415L12.6314 8.75197C12.9745 9.1176 13.1418 9.62096 13.0748 10.13C13.0157 10.5783 12.7857 10.9768 12.427 11.252C12.0684 11.5273 11.6242 11.6462 11.1757 11.5873C10.7275 11.5283 10.329 11.2983 10.0538 10.9396C9.80019 10.6091 9.67953 10.2059 9.70815 9.79415ZM23.1622 31.2492C22.676 32.4231 21.3252 32.9826 20.1515 32.4962C11.6489 28.9744 5.02665 22.3521 1.50467 13.8494C1.26913 13.2808 1.26913 12.6545 1.50467 12.0858C1.74021 11.5172 2.18307 11.0743 2.75171 10.8388C3.32035 10.6032 3.94669 10.6032 4.51532 10.8388C5.08396 11.0743 5.52682 11.5172 5.76237 12.0858C7.26985 15.7253 9.44664 18.9831 12.2322 21.7687C15.0179 24.5543 18.2756 26.731 21.9151 28.2386C23.0891 28.7247 23.6485 30.0754 23.1622 31.2492ZM29.062 11.1116C29.0019 11.1102 28.9417 11.1067 28.8817 11.0989C28.4335 11.0399 28.0351 10.8098 27.7599 10.4512C27.4846 10.0925 27.3655 9.64805 27.4245 9.19988C27.5464 8.27458 28.398 7.62101 29.3237 7.74266C29.6092 7.78025 29.8773 7.89101 30.1059 8.05949L29.062 11.1116ZM30.5473 6.76829C30.2238 6.59211 29.8683 6.47477 29.497 6.4259C27.8454 6.20788 26.3252 7.3751 26.1077 9.02656C26.0024 9.82649 26.2149 10.6196 26.7061 11.2597C27.1793 11.8763 27.8566 12.2791 28.6207 12.402L27.3008 16.2614L25.7829 15.0967C25.492 14.8736 25.075 14.9283 24.8518 15.2193C24.6285 15.5103 24.6835 15.9271 24.9744 16.1503L26.8474 17.5875L23.4146 27.6251C23.1266 27.3748 22.7951 27.1653 22.4237 27.0115C15.3859 24.0963 9.90478 18.6151 6.98975 11.5776C6.88841 11.3328 6.76251 11.1055 6.61728 10.8962L8.39557 10.2622C8.45766 10.7979 8.66332 11.309 9.0002 11.748C9.49134 12.3882 10.2025 12.7987 11.0024 12.9039C11.1364 12.9216 11.27 12.9304 11.403 12.9304C12.0636 12.9304 12.7027 12.7146 13.2356 12.3057C13.8758 11.8144 14.2863 11.1034 14.3916 10.3034C14.4861 9.58517 14.3185 8.87383 13.9422 8.28454L22.197 5.34128L22.5098 6.09659C22.6158 6.35232 22.863 6.50671 23.1236 6.50671C23.2083 6.50671 23.2943 6.49038 23.3775 6.45598C23.7163 6.31566 23.8772 5.92712 23.7368 5.58831L23.4496 4.8947L32.2629 1.75223L30.5473 6.76829Z" fill="white"/>
<path d="M7.17184 17.8152C7.16985 17.812 7.16434 17.8036 7.16222 17.8006C6.95888 17.4956 6.54736 17.4137 6.24223 17.6168C5.93762 17.8196 5.85501 18.2313 6.05662 18.5364C6.18379 18.7318 6.39655 18.8384 6.6139 18.8384C6.73688 18.8384 6.86126 18.8042 6.97229 18.7328C7.28082 18.5345 7.37013 18.1236 7.17184 17.8152Z" fill="white"/>
<path d="M6.16189 16.1654C5.51477 15.0308 4.93305 13.8434 4.43294 12.6362C4.29263 12.2972 3.90395 12.1365 3.56535 12.2768C3.22648 12.4171 3.06564 12.8056 3.20602 13.1444C3.72731 14.4029 4.33373 15.6407 5.00829 16.8234C5.13081 17.0382 5.35499 17.1586 5.58569 17.1586C5.69725 17.1586 5.81034 17.1305 5.91407 17.0713C6.23262 16.8895 6.34365 16.484 6.16189 16.1654Z" fill="white"/>
<path d="M20.7807 8.49913C20.649 8.48173 20.5154 8.47296 20.3834 8.47296C18.8748 8.47296 17.5885 9.6022 17.3914 11.0997C17.174 12.751 18.3406 14.2715 19.992 14.4889C20.1236 14.5063 20.2573 14.5151 20.3893 14.5151C21.8977 14.5151 23.184 13.3858 23.3812 11.8882C23.5985 10.2369 22.432 8.71654 20.7807 8.49913ZM22.0645 11.7149C21.954 12.5541 21.2338 13.1869 20.3893 13.1869C20.315 13.1869 20.2397 13.182 20.1653 13.1721C19.24 13.0503 18.5864 12.1983 18.7082 11.273C18.8187 10.4339 19.5388 9.80115 20.3834 9.80115C20.4576 9.80115 20.533 9.80606 20.6073 9.81589C21.5326 9.93781 22.1863 10.7897 22.0645 11.7149Z" fill="white"/>
<path d="M20.6079 16.7592C20.4762 16.7418 20.3426 16.733 20.2106 16.733C18.702 16.733 17.4157 17.8623 17.2186 19.3598C17.1133 20.1598 17.3258 20.9528 17.817 21.593C18.3081 22.2332 19.0192 22.6437 19.8192 22.7491C19.9507 22.7664 20.0843 22.7751 20.2163 22.7751C21.7248 22.7751 23.0112 21.6459 23.2083 20.1483C23.4258 18.497 22.2592 16.9767 20.6079 16.7592ZM21.8917 19.975C21.7812 20.8142 21.061 21.447 20.2164 21.447C20.1422 21.447 20.0669 21.442 19.9926 21.4322C19.5444 21.3731 19.1459 21.1431 18.8707 20.7845C18.5954 20.4258 18.4764 19.9814 18.5354 19.5331C18.6459 18.694 19.3661 18.0612 20.2106 18.0612C20.2848 18.0612 20.3602 18.0661 20.4345 18.0759C21.3597 18.1978 22.0134 19.0497 21.8917 19.975Z" fill="white"/>
<path d="M16.228 14.0081L14.1869 13.7394C13.8235 13.6911 13.4897 13.9474 13.4419 14.311C13.3939 14.6746 13.6499 15.0082 14.0135 15.0561L16.0545 15.3248C16.084 15.3287 16.1132 15.3306 16.1421 15.3306C16.4702 15.3306 16.7556 15.0873 16.7996 14.7532C16.8476 14.3896 16.5916 14.056 16.228 14.0081Z" fill="white"/>
<path d="M15.1931 18.9087L15.0128 17.5391C14.9649 17.1755 14.6315 16.9194 14.2678 16.9674C13.9042 17.0153 13.6482 17.3488 13.6961 17.7124L13.8764 19.082C13.9204 19.4162 14.2057 19.6594 14.5339 19.6594C14.5628 19.6594 14.592 19.6576 14.6214 19.6537C14.985 19.6058 15.2409 19.2723 15.1931 18.9087Z" fill="white"/>
</g>
<defs>
<clipPath id="clip0">
<rect width="34" height="34" fill="white"/>
</clipPath>
</defs>
</svg>
