<svg width="30" height="30" viewBox="0 0 30 30" fill="none" xmlns="http://www.w3.org/2000/svg">
<g clip-path="url(#clip0)">
<path d="M29.8266 0.169014C29.6665 0.0110455 29.4299 -0.0416888 29.2182 0.0341314L4.88112 8.71168C4.03561 8.19465 2.96318 8.07359 1.97956 8.48088C0.346852 9.15722 -0.431331 11.0358 0.244957 12.6686C1.83982 16.5187 4.14249 19.965 7.08922 22.9117C10.036 25.8585 13.4822 28.1612 17.3323 29.756C17.7322 29.9216 18.1466 30 18.5547 30C19.813 29.9999 21.0094 29.2543 21.52 28.0213C21.8636 27.1918 21.8312 26.2989 21.5025 25.5323L29.9693 0.775634C30.0421 0.562822 29.9867 0.327041 29.8266 0.169014ZM8.56608 8.64189L11.1454 7.72232C11.4482 8.04494 11.5958 8.48908 11.5367 8.93826C11.4845 9.33377 11.2815 9.68539 10.9651 9.92826C10.6486 10.1711 10.2567 10.2761 9.86094 10.2241C9.46549 10.172 9.11393 9.9691 8.87106 9.65257C8.64729 9.36095 8.54082 9.00517 8.56608 8.64189ZM20.4373 27.5728C20.0083 28.6086 18.8164 29.1023 17.7808 28.6731C10.2785 25.5656 4.43534 19.7224 1.32771 12.2201C1.11988 11.7184 1.11988 11.1658 1.32771 10.664C1.53554 10.1622 1.9263 9.77146 2.42804 9.56363C2.92978 9.3558 3.48243 9.3558 3.98417 9.56363C4.48591 9.77146 4.87667 10.1622 5.0845 10.664C6.41463 13.8753 8.33533 16.7498 10.7932 19.2077C13.2511 21.6656 16.1256 23.5862 19.3369 24.9164C20.3728 25.3454 20.8664 26.5371 20.4373 27.5728ZM25.643 9.80439C25.5899 9.8031 25.5368 9.80005 25.4839 9.79314C25.0884 9.74105 24.7369 9.53808 24.4941 9.22162C24.2512 8.90515 24.1461 8.51299 24.1982 8.11754C24.3057 7.30109 25.0571 6.72441 25.8739 6.83176C26.1258 6.86492 26.3624 6.96266 26.5641 7.11131L25.643 9.80439ZM26.9536 5.97201C26.6681 5.81656 26.3545 5.71303 26.0268 5.6699C24.5695 5.47754 23.2281 6.50744 23.0363 7.96461C22.9434 8.67043 23.1309 9.37021 23.5643 9.93505C23.9818 10.4791 24.5794 10.8345 25.2536 10.9429L24.089 14.3483L22.7497 13.3206C22.493 13.1237 22.1251 13.172 21.9281 13.4288C21.7311 13.6855 21.7796 14.0533 22.0363 14.2503L23.6889 15.5184L20.66 24.3751C20.4059 24.1542 20.1134 23.9694 19.7856 23.8336C13.5759 21.2614 8.73957 16.4251 6.16749 10.2155C6.07807 9.99951 5.96698 9.799 5.83883 9.61431L7.40791 9.05486C7.4627 9.52759 7.64416 9.97853 7.94141 10.3659C8.37477 10.9307 9.00225 11.293 9.70807 11.3858C9.82631 11.4014 9.9442 11.4092 10.0615 11.4092C10.6444 11.4092 11.2083 11.2187 11.6785 10.858C12.2434 10.4245 12.6056 9.79712 12.6986 9.09119C12.7819 8.4575 12.6341 7.82984 12.302 7.30988L19.5856 4.71289L19.8616 5.37934C19.9552 5.60498 20.1733 5.74121 20.4032 5.74121C20.4779 5.74121 20.5539 5.7268 20.6272 5.69645C20.9262 5.57264 21.0681 5.22981 20.9443 4.93086L20.6909 4.31885L28.4674 1.54608L26.9536 5.97201Z" fill="white"/>
<path d="M6.32809 15.7193C6.32633 15.7165 6.32147 15.7091 6.3196 15.7064C6.14018 15.4373 5.77708 15.365 5.50784 15.5443C5.23907 15.7232 5.16618 16.0864 5.34407 16.3557C5.45628 16.528 5.64401 16.6221 5.83579 16.6221C5.9443 16.6221 6.05405 16.592 6.15202 16.529C6.42424 16.354 6.50305 15.9914 6.32809 15.7193Z" fill="white"/>
<path d="M5.43708 14.2636C4.86609 13.2625 4.3528 12.2147 3.91154 11.1495C3.78773 10.8505 3.44478 10.7087 3.14601 10.8325C2.84701 10.9563 2.70509 11.2991 2.82896 11.598C3.28892 12.7084 3.824 13.8006 4.41919 14.8442C4.5273 15.0337 4.72511 15.14 4.92866 15.14C5.0271 15.14 5.12689 15.1151 5.21841 15.0629C5.49948 14.9025 5.59745 14.5447 5.43708 14.2636Z" fill="white"/>
<path d="M18.3358 7.49922C18.2196 7.48387 18.1017 7.47614 17.9852 7.47614C16.6541 7.47614 15.5192 8.47252 15.3453 9.79381C15.1534 11.2509 16.1827 12.5925 17.6399 12.7843C17.756 12.7997 17.8739 12.8074 17.9904 12.8074C19.3214 12.8074 20.4564 11.811 20.6304 10.4896C20.8221 9.03256 19.7928 7.69106 18.3358 7.49922ZM19.4686 10.3367C19.3711 11.0771 18.7356 11.6355 17.9904 11.6355C17.9249 11.6355 17.8584 11.6311 17.7928 11.6225C16.9763 11.5149 16.3997 10.7632 16.5071 9.94674C16.6046 9.20635 17.24 8.64807 17.9852 8.64807C18.0507 8.64807 18.1172 8.6524 18.1828 8.66107C18.9992 8.76865 19.576 9.52029 19.4686 10.3367Z" fill="white"/>
<path d="M18.1835 14.7875C18.0673 14.7722 17.9494 14.7644 17.8329 14.7644C16.5018 14.7644 15.3669 15.7608 15.193 17.0822C15.1 17.788 15.2875 18.4878 15.7209 19.0527C16.1542 19.6175 16.7817 19.9797 17.4875 20.0727C17.6036 20.088 17.7215 20.0957 17.8379 20.0957C19.169 20.0957 20.304 19.0993 20.478 17.7779C20.6699 16.3209 19.6405 14.9795 18.1835 14.7875ZM19.3163 17.625C19.2188 18.3655 18.5832 18.9238 17.8381 18.9238C17.7726 18.9238 17.7061 18.9194 17.6406 18.9108C17.2451 18.8587 16.8935 18.6557 16.6507 18.3392C16.4078 18.0228 16.3027 17.6306 16.3548 17.2351C16.4523 16.4947 17.0878 15.9364 17.8329 15.9364C17.8984 15.9364 17.9649 15.9407 18.0305 15.9494C18.8469 16.0569 19.4237 16.8086 19.3163 17.625Z" fill="white"/>
<path d="M14.3189 12.3601L12.518 12.123C12.1973 12.0804 11.9028 12.3065 11.8606 12.6273C11.8183 12.9482 12.0441 13.2425 12.3649 13.2848L14.1659 13.5219C14.1918 13.5253 14.2176 13.527 14.2431 13.527C14.5326 13.527 14.7844 13.3124 14.8232 13.0175C14.8656 12.6967 14.6398 12.4023 14.3189 12.3601Z" fill="white"/>
<path d="M13.4057 16.6841L13.2467 15.4757C13.2045 15.1548 12.9102 14.9289 12.5893 14.9713C12.2685 15.0135 12.0427 15.3078 12.0849 15.6286L12.244 16.837C12.2828 17.1319 12.5346 17.3466 12.8241 17.3466C12.8496 17.3466 12.8754 17.3449 12.9013 17.3415C13.2222 17.2992 13.448 17.005 13.4057 16.6841Z" fill="white"/>
</g>
<defs>
<clipPath id="clip0">
<rect width="30" height="30" fill="white"/>
</clipPath>
</defs>
</svg>
