<svg width="32" height="32" viewBox="0 0 32 32" fill="none" xmlns="http://www.w3.org/2000/svg">
<path fill-rule="evenodd" clip-rule="evenodd" d="M1.76929 4.74765C2.26597 3.91907 5.00418 0.911209 6.95544 1.00201C7.5392 1.05228 8.05523 1.40576 8.47451 1.81762H8.47612C9.43724 2.76457 12.1948 6.33833 12.3496 7.09071C12.7318 8.93596 10.5435 9.99966 11.2127 11.8595C12.9189 16.0575 15.8586 19.0135 20.0353 20.7274C21.8833 21.402 22.9412 19.2032 24.7764 19.5859C25.5246 19.7432 29.0804 22.5143 30.0206 23.4823V23.4823C30.4285 23.9023 30.7833 24.4228 30.8317 25.0098C30.9043 27.0772 27.7274 29.8678 27.1082 30.2245C25.6472 31.2768 23.7411 31.2574 21.4173 30.171C14.933 27.4582 4.57039 17.2347 1.82251 10.4683C0.771086 8.14467 0.700131 6.2151 1.76929 4.74765Z" stroke="white" stroke-width="1.5" stroke-linecap="round" stroke-linejoin="round"/>
<path d="M19.9446 1.39474C25.7573 2.04369 30.3469 6.65422 31 12.4979" stroke="white" stroke-width="1.5" stroke-linecap="round" stroke-linejoin="round"/>
<path d="M19.9446 6.98895C22.7238 7.53369 24.8953 9.71737 25.437 12.5121" stroke="white" stroke-width="1.5" stroke-linecap="round" stroke-linejoin="round"/>
</svg>
