<svg width="32" height="32" viewBox="0 0 32 32" fill="none" xmlns="http://www.w3.org/2000/svg">
<path fill-rule="evenodd" clip-rule="evenodd" d="M3.98651 6.49801C4.40828 5.79832 6.7335 3.25835 8.39045 3.33503C8.88617 3.37747 9.32437 3.67597 9.68041 4.02376H9.68178C10.4979 4.82341 12.8396 7.84125 12.971 8.47659C13.2956 10.0348 11.4373 10.933 12.0056 12.5036C13.4544 16.0486 15.9508 18.5447 19.4975 19.992C21.0668 20.5617 21.9652 18.7049 23.5235 19.0281C24.1589 19.1609 27.1784 21.501 27.9767 22.3184V22.3184C28.3232 22.6731 28.6245 23.1126 28.6655 23.6083C28.7272 25.3541 26.0295 27.7105 25.5036 28.0118C24.263 28.9004 22.6444 28.884 20.6711 27.9666C15.1648 25.6758 6.36513 17.0427 4.0317 11.3288C3.13886 9.36661 3.07861 7.73719 3.98651 6.49801Z" stroke="white" stroke-width="1.5" stroke-linecap="round" stroke-linejoin="round"/>
<path d="M19.4204 3.66666C24.3564 4.21466 28.2537 8.10799 28.8084 13.0427" stroke="white" stroke-width="1.5" stroke-linecap="round" stroke-linejoin="round"/>
<path d="M19.4204 8.39066C21.7804 8.85066 23.6244 10.6947 24.0844 13.0547" stroke="white" stroke-width="1.5" stroke-linecap="round" stroke-linejoin="round"/>
</svg>
