<svg width="378" height="198" viewBox="0 0 378 198" fill="none" xmlns="http://www.w3.org/2000/svg">
<path d="M311.501 0.919999C302.555 16.8333 298.081 27.1 298.081 31.72C298.081 33.7733 298.778 34.8 300.171 34.8C301.931 34.8 303.948 33.48 306.221 30.84C309.668 26.66 312.675 21.6367 315.241 15.77C315.681 14.7433 316.121 14.34 316.561 14.56C317.001 14.78 317.221 15.0733 317.221 15.44C317.221 15.8067 316.855 16.7233 316.121 18.19C315.388 19.6567 314.801 20.83 314.361 21.71C313.921 22.59 312.931 24.2767 311.391 26.77C309.925 29.2633 308.641 31.0967 307.541 32.27C306.515 33.4433 305.158 34.6167 303.471 35.79C301.858 36.89 299.988 37.44 297.861 37.44C295.808 37.44 294.048 36.4133 292.581 34.36C291.921 33.4067 291.591 32.1233 291.591 30.51C291.591 28.8233 291.958 26.8067 292.691 24.46C293.425 22.1133 295.441 18.3 298.741 13.02C299.548 11.7 299.951 10.6733 299.951 9.94C299.951 9.13333 299.328 8.73 298.081 8.73C296.908 8.73 294.745 10.1967 291.591 13.13C288.438 16.0633 285.101 20.0233 281.581 25.01C278.135 29.9967 276.081 33.9933 275.421 37C274.175 37 273.258 36.4867 272.671 35.46C272.085 34.4333 271.791 33.5533 271.791 32.82C271.791 29.8133 273.808 24.0933 277.841 15.66C279.161 12.8733 279.858 11.0033 279.931 10.05C280.005 9.02333 279.858 8.51 279.491 8.51C279.198 8.43667 278.758 8.54666 278.171 8.84C276.851 9.5 274.835 11.1133 272.121 13.68C266.988 18.3733 261.928 25.5233 256.941 35.13C256.575 35.9367 256.098 36.45 255.511 36.67C254.998 36.8167 253.935 36.9267 252.321 37C250.708 37.0733 249.645 37.2567 249.131 37.55C250.451 34.9833 252.761 30.18 256.061 23.14C262.001 10.5267 265.961 3.26667 267.941 1.36C268.821 0.479998 270.031 0.0399972 271.571 0.0399972C271.865 0.0399972 272.598 0.149998 273.771 0.37C275.018 0.589999 275.935 0.626665 276.521 0.479998C273.808 1.94667 269.371 8.84 263.211 21.16C266.658 16.9067 269.115 14.12 270.581 12.8C272.121 11.48 273.258 10.49 273.991 9.83C274.725 9.17 275.275 8.65667 275.641 8.29C276.081 7.92333 276.668 7.41 277.401 6.75C278.208 6.01666 278.795 5.50333 279.161 5.21C279.601 4.84333 280.188 4.36667 280.921 3.78C281.655 3.19333 282.205 2.82667 282.571 2.68C283.011 2.46 283.561 2.13 284.221 1.69C284.955 1.25 285.468 1.03 285.761 1.03C286.128 1.03 286.605 0.956664 287.191 0.809997C287.778 0.589998 288.181 0.626665 288.401 0.919999C289.868 1.50666 290.601 2.42333 290.601 3.67C290.601 4.77 289.355 7.59333 286.861 12.14C284.368 16.6867 282.755 19.6933 282.021 21.16C285.248 17.1267 288.328 13.8267 291.261 11.26C294.195 8.62 297.641 6.2 301.601 4C305.635 1.8 308.568 0.699999 310.401 0.699999C310.841 0.699999 311.208 0.773332 311.501 0.919999ZM367.253 0.919999C358.306 16.8333 353.833 27.1 353.833 31.72C353.833 33.7733 354.53 34.8 355.923 34.8C357.683 34.8 359.7 33.48 361.973 30.84C365.42 26.66 368.426 21.6367 370.993 15.77C371.433 14.7433 371.873 14.34 372.313 14.56C372.753 14.78 372.973 15.0733 372.973 15.44C372.973 15.8067 372.606 16.7233 371.873 18.19C371.14 19.6567 370.553 20.83 370.113 21.71C369.673 22.59 368.683 24.2767 367.143 26.77C365.676 29.2633 364.393 31.0967 363.293 32.27C362.266 33.4433 360.91 34.6167 359.223 35.79C357.61 36.89 355.74 37.44 353.613 37.44C351.56 37.44 349.8 36.4133 348.333 34.36C347.673 33.4067 347.343 32.1233 347.343 30.51C347.343 28.8233 347.71 26.8067 348.443 24.46C349.176 22.1133 351.193 18.3 354.493 13.02C355.3 11.7 355.703 10.6733 355.703 9.94C355.703 9.13333 355.08 8.73 353.833 8.73C352.66 8.73 350.496 10.1967 347.343 13.13C344.19 16.0633 340.853 20.0233 337.333 25.01C333.886 29.9967 331.833 33.9933 331.173 37C329.926 37 329.01 36.4867 328.423 35.46C327.836 34.4333 327.543 33.5533 327.543 32.82C327.543 29.8133 329.56 24.0933 333.593 15.66C334.913 12.8733 335.61 11.0033 335.683 10.05C335.756 9.02333 335.61 8.51 335.243 8.51C334.95 8.43667 334.51 8.54666 333.923 8.84C332.603 9.5 330.586 11.1133 327.873 13.68C322.74 18.3733 317.68 25.5233 312.693 35.13C312.326 35.9367 311.85 36.45 311.263 36.67C310.75 36.8167 309.686 36.9267 308.073 37C306.46 37.0733 305.396 37.2567 304.883 37.55C306.203 34.9833 308.513 30.18 311.813 23.14C317.753 10.5267 321.713 3.26667 323.693 1.36C324.573 0.479998 325.783 0.0399972 327.323 0.0399972C327.616 0.0399972 328.35 0.149998 329.523 0.37C330.77 0.589999 331.686 0.626665 332.273 0.479998C329.56 1.94667 325.123 8.84 318.963 21.16C322.41 16.9067 324.866 14.12 326.333 12.8C327.873 11.48 329.01 10.49 329.743 9.83C330.476 9.17 331.026 8.65667 331.393 8.29C331.833 7.92333 332.42 7.41 333.153 6.75C333.96 6.01666 334.546 5.50333 334.913 5.21C335.353 4.84333 335.94 4.36667 336.673 3.78C337.406 3.19333 337.956 2.82667 338.323 2.68C338.763 2.46 339.313 2.13 339.973 1.69C340.706 1.25 341.22 1.03 341.513 1.03C341.88 1.03 342.356 0.956664 342.943 0.809997C343.53 0.589998 343.933 0.626665 344.153 0.919999C345.62 1.50666 346.353 2.42333 346.353 3.67C346.353 4.77 345.106 7.59333 342.613 12.14C340.12 16.6867 338.506 19.6933 337.773 21.16C341 17.1267 344.08 13.8267 347.013 11.26C349.946 8.62 353.393 6.2 357.353 4C361.386 1.8 364.32 0.699999 366.153 0.699999C366.593 0.699999 366.96 0.773332 367.253 0.919999ZM141.87 122.54C146.417 122.54 148.69 121.44 148.69 119.24C148.69 118.14 149.057 117.59 149.79 117.59C150.597 117.59 151 118.507 151 120.34C151 122.1 149.973 123.457 147.92 124.41C145.867 125.363 144.033 125.84 142.42 125.84C140.88 125.84 139.597 125.767 138.57 125.62C127.79 124.227 118.55 121.88 110.85 118.58C105.643 126.793 100.987 137.72 96.88 151.36C95.34 156.273 93.14 161.59 90.28 167.31C87.4933 173.03 84.45 177.76 81.15 181.5C77.9233 185.167 74.1833 188.173 69.93 190.52C61.57 195.067 51.7067 197.34 40.34 197.34C31.1 197.34 22.4467 195.067 14.38 190.52C6.46 186.047 1.84 179.153 0.52 169.84C0.373333 168.593 0.3 166.76 0.3 164.34C0.3 161.847 0.996667 158.327 2.39 153.78C3.85667 149.233 6.57 145.787 10.53 143.44C12.1433 142.487 13.3533 142.01 14.16 142.01C15.48 142.01 16.0667 142.633 15.92 143.88C15.6267 144.247 14.8567 144.87 13.61 145.75C12.4367 146.557 11.3 147.437 10.2 148.39C9.1 149.27 8 150.663 6.9 152.57C4.99333 155.797 4.04 159.427 4.04 163.46C4.04 172.7 7.19333 179.813 13.5 184.8C16.8733 187.587 20.65 189.713 24.83 191.18C29.01 192.647 33.19 193.38 37.37 193.38C37.5167 193.38 37.7 193.38 37.92 193.38C53.1 193.013 65.5667 187.513 75.32 176.88C81.48 170.207 89.9133 155.137 100.62 131.67C104.287 123.603 106.633 118.873 107.66 117.48C94.68 113.373 83.02 111.32 72.68 111.32C62.34 111.32 53.9433 114.437 47.49 120.67C42.2833 125.657 39.68 130.863 39.68 136.29C39.68 142.23 42.2833 146.007 47.49 147.62C49.3233 148.133 50.9733 148.39 52.44 148.39C53.98 148.39 55.7033 148.133 57.61 147.62C59.59 147.033 61.46 145.897 63.22 144.21C65.0533 142.45 66.41 140.727 67.29 139.04C68.2433 137.353 68.6467 136.07 68.5 135.19V134.97C69.0867 134.457 69.6 134.31 70.04 134.53C70.48 134.677 70.7 135.117 70.7 135.85C69.9667 141.57 67.07 145.86 62.01 148.72C58.93 150.553 56.07 151.47 53.43 151.47C50.79 151.47 48.4433 151.103 46.39 150.37C40.3767 148.243 36.5633 144.173 34.95 138.16C34.4367 136.253 34.18 134.383 34.18 132.55C34.18 128.15 35.5367 123.86 38.25 119.68C43.09 112.2 50.68 107.69 61.02 106.15C63.3667 105.783 65.6033 105.6 67.73 105.6C69.8567 105.6 72.3133 105.71 75.1 105.93C77.96 106.15 81.7 106.883 86.32 108.13C91.0133 109.377 95.78 110.843 100.62 112.53C105.533 114.143 108.467 115.097 109.42 115.39C113.013 110.99 115.69 108.753 117.45 108.68C117.817 108.533 118.293 108.46 118.88 108.46C119.54 108.46 120.053 108.973 120.42 110C120.787 111.027 120.53 111.687 119.65 111.98C119.283 112.053 118.807 112.017 118.22 111.87C117.78 111.577 116.863 112.053 115.47 113.3C114.15 114.473 113.16 115.463 112.5 116.27C119.393 118.47 125.443 120.083 130.65 121.11C135.857 122.063 139.597 122.54 141.87 122.54ZM137.687 157.19C136.367 158.51 134.497 161.517 132.077 166.21C129.657 170.83 128.19 174.313 127.677 176.66C127.237 178.933 127.017 180.803 127.017 182.27C127.017 183.663 127.567 184.36 128.667 184.36C130.06 184.36 131.783 183.077 133.837 180.51C136.843 176.77 139.813 171.893 142.747 165.88C143.04 165.22 143.37 164.853 143.737 164.78C144.323 164.56 144.617 164.78 144.617 165.44C144.617 165.807 144.507 166.247 144.287 166.76C137.54 180.4 131.857 187.22 127.237 187.22C125.11 187.22 123.387 186.193 122.067 184.14C121.407 183.04 121.077 181.573 121.077 179.74C121.077 177.907 121.443 175.67 122.177 173.03C116.31 182.49 111.25 187.22 106.997 187.22C105.823 187.22 104.76 186.853 103.807 186.12C101.607 184.58 100.507 181.94 100.507 178.2C100.507 171.013 103.623 163.717 109.857 156.31C113.377 152.203 117.703 149.527 122.837 148.28C124.23 147.913 125.55 147.73 126.797 147.73C130.17 147.73 133.03 148.903 135.377 151.25C136.11 152.057 136.33 152.827 136.037 153.56C135.743 154.293 135.12 154.587 134.167 154.44C133.36 151.8 131.6 150.48 128.887 150.48C125.733 150.48 121.847 152.973 117.227 157.96C114.587 160.893 112.13 164.34 109.857 168.3C106.997 173.067 105.567 176.88 105.567 179.74C105.567 182.6 106.483 184.03 108.317 184.03C112.717 184.03 118.473 177.283 125.587 163.79C126.98 161.077 128.153 159.243 129.107 158.29C130.06 157.263 131.27 156.75 132.737 156.75C133.03 156.75 133.763 156.86 134.937 157.08C136.183 157.3 137.1 157.337 137.687 157.19ZM139.954 178.2C139.954 172.113 142.887 161.92 148.754 147.62H143.034C142.667 147.62 142.41 147.437 142.264 147.07C142.19 146.63 142.227 146.227 142.374 145.86C142.594 145.42 142.887 145.2 143.254 145.2H149.854C152.494 139.407 154.95 134.567 157.224 130.68C159.497 126.793 161.587 124.19 163.494 122.87C165.4 121.477 166.757 120.78 167.564 120.78C168.444 120.78 169.067 120.853 169.434 121C171.12 121.807 171.964 123.493 171.964 126.06C171.964 128.553 171.12 131.597 169.434 135.19C167.747 138.783 166.097 142.12 164.484 145.2H169.764C170.13 145.2 170.35 145.42 170.424 145.86C170.57 146.227 170.534 146.63 170.314 147.07C170.167 147.437 169.91 147.62 169.544 147.62H163.164C159.13 154.44 154.254 160.49 148.534 165.77L146.004 176.99C145.784 177.943 145.674 178.897 145.674 179.85C145.674 180.73 145.93 181.647 146.444 182.6C146.957 183.553 147.764 184.03 148.864 184.03C150.11 184.03 151.504 183.59 153.044 182.71C156.564 180.07 160.45 174.533 164.704 166.1C164.997 165.44 165.327 165.037 165.694 164.89C166.134 164.743 166.39 164.853 166.464 165.22C166.537 165.513 166.427 166.027 166.134 166.76C163.714 171.82 161.807 175.413 160.414 177.54C156.454 183.92 152.237 187.11 147.764 187.11C145.49 187.11 143.62 186.267 142.154 184.58C140.687 182.893 139.954 180.767 139.954 178.2ZM162.064 145.2C166.904 136.547 169.324 130.533 169.324 127.16C169.324 125.693 169.067 124.96 168.554 124.96C167.747 124.96 166.5 126.133 164.814 128.48C163.2 130.827 160.45 136.4 156.564 145.2H162.064ZM160.634 147.62H155.464C154.584 149.673 152.604 154.55 149.524 162.25C153.484 158.143 157.187 153.267 160.634 147.62ZM161.975 178.2C161.975 172.113 164.908 161.92 170.775 147.62H165.055C164.688 147.62 164.432 147.437 164.285 147.07C164.212 146.63 164.248 146.227 164.395 145.86C164.615 145.42 164.908 145.2 165.275 145.2H171.875C174.515 139.407 176.972 134.567 179.245 130.68C181.518 126.793 183.608 124.19 185.515 122.87C187.422 121.477 188.778 120.78 189.585 120.78C190.465 120.78 191.088 120.853 191.455 121C193.142 121.807 193.985 123.493 193.985 126.06C193.985 128.553 193.142 131.597 191.455 135.19C189.768 138.783 188.118 142.12 186.505 145.2H191.785C192.152 145.2 192.372 145.42 192.445 145.86C192.592 146.227 192.555 146.63 192.335 147.07C192.188 147.437 191.932 147.62 191.565 147.62H185.185C181.152 154.44 176.275 160.49 170.555 165.77L168.025 176.99C167.805 177.943 167.695 178.897 167.695 179.85C167.695 180.73 167.952 181.647 168.465 182.6C168.978 183.553 169.785 184.03 170.885 184.03C172.132 184.03 173.525 183.59 175.065 182.71C178.585 180.07 182.472 174.533 186.725 166.1C187.018 165.44 187.348 165.037 187.715 164.89C188.155 164.743 188.412 164.853 188.485 165.22C188.558 165.513 188.448 166.027 188.155 166.76C185.735 171.82 183.828 175.413 182.435 177.54C178.475 183.92 174.258 187.11 169.785 187.11C167.512 187.11 165.642 186.267 164.175 184.58C162.708 182.893 161.975 180.767 161.975 178.2ZM184.085 145.2C188.925 136.547 191.345 130.533 191.345 127.16C191.345 125.693 191.088 124.96 190.575 124.96C189.768 124.96 188.522 126.133 186.835 128.48C185.222 130.827 182.472 136.4 178.585 145.2H184.085ZM182.655 147.62H177.485C176.605 149.673 174.625 154.55 171.545 162.25C175.505 158.143 179.208 153.267 182.655 147.62ZM201.817 144.21C200.79 145.09 199.653 145.53 198.407 145.53C197.16 145.53 196.17 145.09 195.437 144.21C194.703 143.33 194.41 142.267 194.557 141.02C194.777 139.773 195.4 138.71 196.427 137.83C197.453 136.95 198.59 136.51 199.837 136.51C201.083 136.51 202.073 136.95 202.807 137.83C203.613 138.71 203.907 139.773 203.687 141.02C203.467 142.267 202.843 143.33 201.817 144.21ZM191.037 184.58C192.43 184.58 193.897 183.883 195.437 182.49C198.15 179.777 201.597 174.24 205.777 165.88C206.29 164.78 206.803 164.45 207.317 164.89C207.463 165.037 207.537 165.293 207.537 165.66C207.537 165.953 207.243 166.76 206.657 168.08C206.07 169.327 205.52 170.463 205.007 171.49C204.567 172.517 203.65 174.203 202.257 176.55C200.937 178.823 199.727 180.583 198.627 181.83C195.62 185.277 192.76 187 190.047 187C187.407 187 185.5 186.193 184.327 184.58C183.153 182.967 182.567 181.17 182.567 179.19C182.567 177.21 183.043 175.047 183.997 172.7L191.037 154.77C191.183 154.33 191.257 153.743 191.257 153.01C191.257 152.277 190.817 151.323 189.937 150.15L195.987 150.04C197.673 150.04 198.663 150.37 198.957 151.03C199.25 151.617 199.03 152.57 198.297 153.89L189.497 174.46C188.25 177.173 187.627 179.483 187.627 181.39C187.627 183.517 188.763 184.58 191.037 184.58ZM215.328 184.91C216.281 185.057 216.941 185.13 217.308 185.13C220.241 185.13 223.138 183.407 225.998 179.96C227.538 178.053 230.288 173.25 234.248 165.55C234.394 165.183 234.651 165 235.018 165C235.678 164.927 236.008 165.183 236.008 165.77C236.008 165.917 235.824 166.357 235.458 167.09C235.164 167.75 234.871 168.447 234.578 169.18C234.284 169.84 233.808 170.83 233.148 172.15C232.488 173.47 231.901 174.533 231.388 175.34C230.948 176.147 230.361 177.137 229.628 178.31C228.894 179.483 228.161 180.4 227.428 181.06L225.118 183.48C223.871 184.727 222.404 185.607 220.718 186.12C218.004 187 215.364 187.073 212.798 186.34C211.111 187.073 209.608 187.44 208.288 187.44C203.081 187.44 199.928 185.387 198.828 181.28C198.608 180.327 198.498 179.19 198.498 177.87C198.498 176.477 198.938 175.157 199.818 173.91C200.771 172.663 201.761 172.003 202.788 171.93C206.528 164.817 209.718 158.4 212.358 152.68C215.291 146.447 218.701 143.33 222.588 143.33C223.614 143.33 224.604 143.587 225.558 144.1C226.584 144.54 226.951 145.053 226.658 145.64C226.438 146.227 225.924 146.337 225.118 145.97C224.311 145.603 223.614 145.42 223.028 145.42C222.441 145.42 221.928 145.53 221.488 145.75C218.994 146.923 217.748 149.453 217.748 153.34C217.748 155.393 218.041 157.08 218.628 158.4C219.214 159.72 219.874 161.15 220.608 162.69C222.294 166.503 223.138 169.62 223.138 172.04C223.138 174.46 222.368 176.843 220.828 179.19C219.288 181.537 217.454 183.443 215.328 184.91ZM211.588 184.14C214.814 181.647 216.428 177.613 216.428 172.04C216.428 169.767 216.171 166.65 215.658 162.69C215.144 158.73 214.888 156.053 214.888 154.66C214.888 153.267 214.924 152.313 214.998 151.8C209.424 162.947 205.978 169.73 204.658 172.15C206.198 172.15 206.968 173.25 206.968 175.45C206.968 179.777 208.508 182.673 211.588 184.14ZM203.338 181.17C203.338 181.61 203.374 182.087 203.448 182.6C204.034 184.58 205.391 185.57 207.518 185.57C208.398 185.57 209.131 185.423 209.718 185.13C207.004 183.443 205.538 180.693 205.318 176.88C203.998 178.2 203.338 179.63 203.338 181.17ZM249.082 144.21C248.056 145.09 246.919 145.53 245.672 145.53C244.426 145.53 243.436 145.09 242.702 144.21C241.969 143.33 241.676 142.267 241.822 141.02C242.042 139.773 242.666 138.71 243.692 137.83C244.719 136.95 245.856 136.51 247.102 136.51C248.349 136.51 249.339 136.95 250.072 137.83C250.879 138.71 251.172 139.773 250.952 141.02C250.732 142.267 250.109 143.33 249.082 144.21ZM238.302 184.58C239.696 184.58 241.162 183.883 242.702 182.49C245.416 179.777 248.862 174.24 253.042 165.88C253.556 164.78 254.069 164.45 254.582 164.89C254.729 165.037 254.802 165.293 254.802 165.66C254.802 165.953 254.509 166.76 253.922 168.08C253.336 169.327 252.786 170.463 252.272 171.49C251.832 172.517 250.916 174.203 249.522 176.55C248.202 178.823 246.992 180.583 245.892 181.83C242.886 185.277 240.026 187 237.312 187C234.672 187 232.766 186.193 231.592 184.58C230.419 182.967 229.832 181.17 229.832 179.19C229.832 177.21 230.309 175.047 231.262 172.7L238.302 154.77C238.449 154.33 238.522 153.743 238.522 153.01C238.522 152.277 238.082 151.323 237.202 150.15L243.252 150.04C244.939 150.04 245.929 150.37 246.222 151.03C246.516 151.617 246.296 152.57 245.562 153.89L236.762 174.46C235.516 177.173 234.892 179.483 234.892 181.39C234.892 183.517 236.029 184.58 238.302 184.58ZM286.353 150.92C277.333 166.76 272.823 177.1 272.823 181.94C272.823 183.847 273.52 184.8 274.913 184.8C278.653 184.8 283.677 178.457 289.983 165.77C290.423 164.743 290.863 164.34 291.303 164.56C291.743 164.78 291.963 165.073 291.963 165.44C291.963 165.807 291.817 166.247 291.523 166.76C287.637 174.607 284.337 180.033 281.623 183.04C278.983 185.973 276.307 187.44 273.593 187.44C270.953 187.44 268.937 186.413 267.543 184.36C266.81 183.407 266.443 182.123 266.443 180.51C266.443 178.823 266.81 176.807 267.543 174.46C268.277 172.113 270.293 168.3 273.593 163.02C274.4 161.7 274.803 160.673 274.803 159.94C274.803 159.133 274.18 158.73 272.933 158.73C271.687 158.73 269.303 160.38 265.783 163.68C260.503 168.52 255.407 175.78 250.493 185.46C250.053 186.193 249.54 186.67 248.953 186.89C248.44 187.037 247.377 187.147 245.763 187.22C244.15 187.293 243.087 187.477 242.573 187.77C243.747 185.423 246.057 180.62 249.503 173.36C255.663 160.527 259.697 153.193 261.603 151.36C262.483 150.48 263.693 150.04 265.233 150.04C265.527 150.04 266.26 150.15 267.433 150.37C268.68 150.59 269.597 150.627 270.183 150.48C267.47 151.947 263.033 158.84 256.873 171.16C260.32 166.907 263.437 163.533 266.223 161.04C269.083 158.473 272.493 156.127 276.453 154C280.413 151.8 283.31 150.7 285.143 150.7C285.583 150.7 285.987 150.773 286.353 150.92ZM351.886 157.19C350.566 158.51 348.696 161.517 346.276 166.21C343.856 170.83 342.389 174.313 341.876 176.66C341.436 178.933 341.216 180.803 341.216 182.27C341.216 183.663 341.766 184.36 342.866 184.36C344.259 184.36 345.982 183.077 348.036 180.51C351.042 176.77 354.012 171.893 356.946 165.88C357.239 165.22 357.569 164.853 357.936 164.78C358.522 164.56 358.816 164.78 358.816 165.44C358.816 165.807 358.706 166.247 358.486 166.76C351.739 180.4 346.056 187.22 341.436 187.22C339.309 187.22 337.586 186.193 336.266 184.14C335.606 183.04 335.276 181.573 335.276 179.74C335.276 177.907 335.642 175.67 336.376 173.03C330.509 182.49 325.449 187.22 321.196 187.22C320.022 187.22 318.959 186.853 318.006 186.12C315.806 184.58 314.706 181.94 314.706 178.2C314.706 171.013 317.822 163.717 324.056 156.31C327.576 152.203 331.902 149.527 337.036 148.28C338.429 147.913 339.749 147.73 340.996 147.73C344.369 147.73 347.229 148.903 349.576 151.25C350.309 152.057 350.529 152.827 350.236 153.56C349.942 154.293 349.319 154.587 348.366 154.44C347.559 151.8 345.799 150.48 343.086 150.48C339.932 150.48 336.046 152.973 331.426 157.96C328.786 160.893 326.329 164.34 324.056 168.3C321.196 173.067 319.766 176.88 319.766 179.74C319.766 182.6 320.682 184.03 322.516 184.03C326.916 184.03 332.672 177.283 339.786 163.79C341.179 161.077 342.352 159.243 343.306 158.29C344.259 157.263 345.469 156.75 346.936 156.75C347.229 156.75 347.962 156.86 349.136 157.08C350.382 157.3 351.299 157.337 351.886 157.19ZM371.973 144.21C370.946 145.09 369.809 145.53 368.563 145.53C367.316 145.53 366.326 145.09 365.593 144.21C364.859 143.33 364.566 142.267 364.713 141.02C364.933 139.773 365.556 138.71 366.583 137.83C367.609 136.95 368.746 136.51 369.993 136.51C371.239 136.51 372.229 136.95 372.963 137.83C373.769 138.71 374.063 139.773 373.843 141.02C373.623 142.267 372.999 143.33 371.973 144.21ZM361.193 184.58C362.586 184.58 364.053 183.883 365.593 182.49C368.306 179.777 371.753 174.24 375.933 165.88C376.446 164.78 376.959 164.45 377.473 164.89C377.619 165.037 377.693 165.293 377.693 165.66C377.693 165.953 377.399 166.76 376.813 168.08C376.226 169.327 375.676 170.463 375.163 171.49C374.723 172.517 373.806 174.203 372.413 176.55C371.093 178.823 369.883 180.583 368.783 181.83C365.776 185.277 362.916 187 360.203 187C357.563 187 355.656 186.193 354.483 184.58C353.309 182.967 352.723 181.17 352.723 179.19C352.723 177.21 353.199 175.047 354.153 172.7L361.193 154.77C361.339 154.33 361.413 153.743 361.413 153.01C361.413 152.277 360.973 151.323 360.093 150.15L366.143 150.04C367.829 150.04 368.819 150.37 369.113 151.03C369.406 151.617 369.186 152.57 368.453 153.89L359.653 174.46C358.406 177.173 357.783 179.483 357.783 181.39C357.783 183.517 358.919 184.58 361.193 184.58Z" fill="white"/>
</svg>
