<svg width="39" height="48" viewBox="0 0 39 48" fill="none" xmlns="http://www.w3.org/2000/svg">
<path d="M7.20673 15.5625V19.8824C6.26351 20.2109 5.48679 20.9018 5.0502 21.8357L3.19751 25.8081C2.00267 28.3719 2.5797 31.4017 4.63367 33.3471L10.0192 38.4462V47.0625C10.0192 47.5803 10.439 48 10.9567 48H15.1755C15.6932 48 16.113 47.5803 16.113 47.0625C16.113 46.5447 15.6932 46.125 15.1755 46.125H11.8942V38.0428C11.8942 37.7853 11.7883 37.5391 11.6013 37.3621L5.92301 31.9856C4.45582 30.596 4.04351 28.4317 4.89701 26.6003L6.74914 22.629C7.19867 21.6675 8.32208 21.2919 9.24148 21.7212L18.5027 26.0393C17.2047 27.7922 14.8063 28.454 12.7546 27.4976L10.2055 26.3089C9.7362 26.0899 9.17839 26.2931 8.95967 26.7622C8.74076 27.2315 8.94383 27.7893 9.41304 28.0082L11.9622 29.197C13.0071 29.6842 14.1812 29.901 15.3937 29.7766C17.372 31.9138 18.4567 34.6757 18.4567 37.605C18.4567 38.1228 18.8765 38.5425 19.3942 38.5425C19.9119 38.5425 20.3317 38.1228 20.3317 37.605C20.3317 34.527 19.3013 31.6081 17.405 29.2403C18.8013 28.6193 19.9885 27.5122 20.6835 26.0219L20.6844 26.0197C21.1501 26.2273 21.6649 26.3438 22.2067 26.3438C23.0437 26.3438 23.8175 26.0679 24.4422 25.6026C25.0443 26.8708 26.3371 27.75 27.8317 27.75C28.4091 27.75 28.9564 27.6186 29.4454 27.3845C29.1868 29.0675 28.7679 30.6021 28.3337 32.1902C27.626 34.7782 26.8942 37.4543 26.8942 40.875V46.125H23.613C23.0953 46.125 22.6755 46.5447 22.6755 47.0625C22.6755 47.5803 23.0953 48 23.613 48H27.8317C28.3494 48 28.7692 47.5803 28.7692 47.0625V40.875C28.7692 37.7061 29.4362 35.267 30.1423 32.6848C30.8499 30.0968 31.5817 27.4207 31.5817 24V18.375C31.5817 16.3073 29.8995 14.625 27.8317 14.625C26.9947 14.625 26.2209 14.9008 25.5963 15.3662C24.9942 14.0979 23.7014 13.2188 22.2067 13.2188C21.3697 13.2188 20.5959 13.4946 19.9713 13.9599C19.3692 12.6917 18.0764 11.8125 16.5817 11.8125C15.4625 11.8125 14.4569 12.306 13.7692 13.0861C13.0816 12.306 12.0759 11.8125 10.9567 11.8125C8.88898 11.8125 7.20673 13.4948 7.20673 15.5625ZM25.9567 18.375C25.9567 17.3411 26.7979 16.5 27.8317 16.5C28.8656 16.5 29.7067 17.3411 29.7067 18.375V24C29.7067 25.0339 28.8656 25.875 27.8317 25.875C26.7979 25.875 25.9567 25.0339 25.9567 24V18.375ZM20.3317 16.9688C20.3317 15.9349 21.1729 15.0938 22.2067 15.0938C23.2406 15.0938 24.0817 15.9349 24.0817 16.9688V22.5938C24.0817 23.6276 23.2406 24.4688 22.2067 24.4688C21.1729 24.4688 20.3317 23.6276 20.3317 22.5938V16.9688ZM14.7067 15.5625C14.7067 14.5286 15.5479 13.6875 16.5817 13.6875C17.6156 13.6875 18.4567 14.5286 18.4567 15.5625V22.5938C18.4567 23.1278 18.5697 23.6357 18.7718 24.096L14.7067 22.2007V15.5625ZM9.08173 15.5625C9.08173 14.5286 9.92286 13.6875 10.9567 13.6875C11.9906 13.6875 12.8317 14.5286 12.8317 15.5625V21.3264L10.0343 20.0222C9.72983 19.88 9.40929 19.7806 9.08173 19.7243V15.5625Z" fill="white"/>
<path d="M20 4.10714V0.892857C20 0.399732 19.5522 0 19 0C18.4478 0 18 0.399732 18 0.892857V4.10714C18 4.60027 18.4478 5 19 5C19.5522 5 20 4.60027 20 4.10714Z" fill="white"/>
<path d="M11.4254 7.38572C11.8738 7.12688 12.0275 6.5536 11.7687 6.1051L10.3624 3.66853C10.1036 3.22003 9.53023 3.06628 9.08182 3.32513C8.63342 3.58397 8.47967 4.15725 8.73851 4.60575L10.1448 7.04231C10.4028 7.48941 10.9758 7.64531 11.4254 7.38572Z" fill="white"/>
<path d="M3.84289 11.938L1.40632 10.5318C0.95745 10.2728 0.384356 10.4267 0.1257 10.8752C-0.133144 11.3236 0.0206062 11.897 0.469012 12.1558L2.90558 13.5621C3.35211 13.8197 3.92633 13.6691 4.1862 13.2186C4.44504 12.7701 4.29129 12.1969 3.84289 11.938Z" fill="white"/>
<path d="M28.6437 7.0424L30.0499 4.60584C30.3088 4.15744 30.155 3.58406 29.7066 3.32522C29.2579 3.06628 28.6849 3.22022 28.426 3.66862L27.0198 6.10519C26.7609 6.55359 26.9147 7.12697 27.3631 7.38581C27.8097 7.64334 28.3837 7.49278 28.6437 7.0424Z" fill="white"/>
<path d="M35.8829 13.562L38.3194 12.1557C38.7679 11.8969 38.9216 11.3236 38.6628 10.8751C38.4038 10.4267 37.8306 10.2728 37.3821 10.5317L34.9456 11.9379C34.4972 12.1968 34.3434 12.7701 34.6023 13.2186C34.8603 13.6657 35.4333 13.8216 35.8829 13.562Z" fill="white"/>
<path d="M19.3942 48C19.912 48 20.3317 47.5803 20.3317 47.0625C20.3317 46.5447 19.912 46.125 19.3942 46.125C18.8765 46.125 18.4567 46.5447 18.4567 47.0625C18.4567 47.5803 18.8765 48 19.3942 48Z" fill="white"/>
</svg>
