<svg width="110" height="33" viewBox="0 0 110 33" fill="none" xmlns="http://www.w3.org/2000/svg">
<rect width="97" height="33" rx="15" fill="#C01825"/>
<ellipse cx="90.5" cy="16.5" rx="17.5" ry="16.5" fill="#FFDF8B"/>
<path d="M12.432 15.912C12.8875 16.0688 13.2421 16.3152 13.496 16.6512C13.7573 16.9797 13.888 17.3643 13.888 17.8048C13.888 18.2827 13.7312 18.6971 13.4176 19.048C13.104 19.3989 12.6784 19.6677 12.1408 19.8544C11.6107 20.0411 11.0283 20.1344 10.3936 20.1344C9.856 20.1344 9.3184 20.0672 8.7808 19.9328C8.25067 19.7984 7.74667 19.5931 7.2688 19.3168L7.8288 18.0176C8.17227 18.2267 8.54933 18.3872 8.96 18.4992C9.37813 18.6037 9.78507 18.656 10.1808 18.656C10.7184 18.656 11.1627 18.5589 11.5136 18.3648C11.872 18.1707 12.0512 17.8981 12.0512 17.5472C12.0512 17.256 11.928 17.0357 11.6816 16.8864C11.4427 16.7371 11.1141 16.6624 10.696 16.6624H8.7808V15.296H10.5616C10.9275 15.296 11.2112 15.2213 11.4128 15.072C11.6219 14.9227 11.7264 14.7173 11.7264 14.456C11.7264 14.1499 11.5771 13.9109 11.2784 13.7392C10.9872 13.5675 10.6101 13.4816 10.1472 13.4816C9.80373 13.4816 9.44907 13.5301 9.0832 13.6272C8.71733 13.7168 8.37013 13.8549 8.0416 14.0416L7.4928 12.6304C8.3216 12.2048 9.2176 11.992 10.1808 11.992C10.7931 11.992 11.3568 12.0816 11.872 12.2608C12.3872 12.44 12.7979 12.7013 13.104 13.0448C13.4101 13.3883 13.5632 13.7877 13.5632 14.2432C13.5632 14.6165 13.4624 14.9488 13.2608 15.24C13.0592 15.5312 12.7829 15.7552 12.432 15.912ZM21.2716 13.9744V20H19.6028V19.3056C19.1697 19.8283 18.5425 20.0896 17.7212 20.0896C17.1537 20.0896 16.6385 19.9627 16.1756 19.7088C15.7201 19.4549 15.3617 19.0928 15.1004 18.6224C14.8391 18.152 14.7084 17.6069 14.7084 16.9872C14.7084 16.3675 14.8391 15.8224 15.1004 15.352C15.3617 14.8816 15.7201 14.5195 16.1756 14.2656C16.6385 14.0117 17.1537 13.8848 17.7212 13.8848C18.4903 13.8848 19.0913 14.1275 19.5244 14.6128V13.9744H21.2716ZM18.0236 18.656C18.4641 18.656 18.83 18.5067 19.1212 18.208C19.4124 17.9019 19.558 17.4949 19.558 16.9872C19.558 16.4795 19.4124 16.0763 19.1212 15.7776C18.83 15.4715 18.4641 15.3184 18.0236 15.3184C17.5756 15.3184 17.206 15.4715 16.9148 15.7776C16.6236 16.0763 16.478 16.4795 16.478 16.9872C16.478 17.4949 16.6236 17.9019 16.9148 18.208C17.206 18.5067 17.5756 18.656 18.0236 18.656ZM25.5772 17.7152H24.67V20H22.9228V13.9744H24.67V16.3152H25.6108L27.246 13.9744H29.1052L26.9996 16.864L29.2508 20H27.19L25.5772 17.7152ZM36.0044 13.9744V20H34.3356V19.3056C33.9025 19.8283 33.2753 20.0896 32.454 20.0896C31.8865 20.0896 31.3713 19.9627 30.9084 19.7088C30.4529 19.4549 30.0945 19.0928 29.8332 18.6224C29.5719 18.152 29.4412 17.6069 29.4412 16.9872C29.4412 16.3675 29.5719 15.8224 29.8332 15.352C30.0945 14.8816 30.4529 14.5195 30.9084 14.2656C31.3713 14.0117 31.8865 13.8848 32.454 13.8848C33.2231 13.8848 33.8241 14.1275 34.2572 14.6128V13.9744H36.0044ZM32.7564 18.656C33.1969 18.656 33.5628 18.5067 33.854 18.208C34.1452 17.9019 34.2908 17.4949 34.2908 16.9872C34.2908 16.4795 34.1452 16.0763 33.854 15.7776C33.5628 15.4715 33.1969 15.3184 32.7564 15.3184C32.3084 15.3184 31.9388 15.4715 31.6476 15.7776C31.3564 16.0763 31.2108 16.4795 31.2108 16.9872C31.2108 17.4949 31.3564 17.9019 31.6476 18.208C31.9388 18.5067 32.3084 18.656 32.7564 18.656ZM41.5097 16.864C41.8681 16.976 42.1444 17.1477 42.3385 17.3792C42.5401 17.6107 42.6409 17.8869 42.6409 18.208C42.6409 18.5888 42.5103 18.9248 42.2489 19.216C41.9876 19.4997 41.6292 19.72 41.1737 19.8768C40.7183 20.0336 40.2031 20.112 39.6281 20.112C39.1577 20.112 38.6948 20.0635 38.2393 19.9664C37.7839 19.8693 37.362 19.7237 36.9737 19.5296L37.4441 18.3088C38.0788 18.6149 38.7807 18.768 39.5497 18.768C39.9604 18.768 40.2815 18.7083 40.5129 18.5888C40.7519 18.4619 40.8713 18.2864 40.8713 18.0624C40.8713 17.8683 40.7892 17.7227 40.6249 17.6256C40.4607 17.5211 40.2217 17.4688 39.9081 17.4688H38.6761V16.3824H39.7513C40.0575 16.3824 40.2927 16.3339 40.4569 16.2368C40.6212 16.1397 40.7033 15.9979 40.7033 15.8112C40.7033 15.6171 40.5988 15.4677 40.3897 15.3632C40.1881 15.2587 39.8969 15.2064 39.5161 15.2064C38.9337 15.2064 38.2991 15.3445 37.6121 15.6208L37.1865 14.4112C38.0228 14.0453 38.8367 13.8624 39.6281 13.8624C40.1732 13.8624 40.6585 13.9296 41.0841 14.064C41.5172 14.1984 41.8569 14.3963 42.1033 14.6576C42.3497 14.9115 42.4729 15.2101 42.4729 15.5536C42.4729 15.8373 42.3871 16.0949 42.2153 16.3264C42.0436 16.5504 41.8084 16.7296 41.5097 16.864ZM49.9935 13.9744V20H48.3247V19.3056C47.8916 19.8283 47.2644 20.0896 46.4431 20.0896C45.8756 20.0896 45.3604 19.9627 44.8975 19.7088C44.442 19.4549 44.0836 19.0928 43.8223 18.6224C43.5609 18.152 43.4303 17.6069 43.4303 16.9872C43.4303 16.3675 43.5609 15.8224 43.8223 15.352C44.0836 14.8816 44.442 14.5195 44.8975 14.2656C45.3604 14.0117 45.8756 13.8848 46.4431 13.8848C47.2121 13.8848 47.8132 14.1275 48.2463 14.6128V13.9744H49.9935ZM46.7455 18.656C47.186 18.656 47.5519 18.5067 47.8431 18.208C48.1343 17.9019 48.2799 17.4949 48.2799 16.9872C48.2799 16.4795 48.1343 16.0763 47.8431 15.7776C47.5519 15.4715 47.186 15.3184 46.7455 15.3184C46.2975 15.3184 45.9279 15.4715 45.6367 15.7776C45.3455 16.0763 45.1999 16.4795 45.1999 16.9872C45.1999 17.4949 45.3455 17.9019 45.6367 18.208C45.9279 18.5067 46.2975 18.656 46.7455 18.656ZM59.3503 13.8848C60.1044 13.8848 60.7018 14.1088 61.1423 14.5568C61.5903 14.9973 61.8143 15.6619 61.8143 16.5504V20H60.0671V16.8192C60.0671 16.3413 59.9663 15.9867 59.7647 15.7552C59.5706 15.5163 59.2906 15.3968 58.9247 15.3968C58.514 15.3968 58.1892 15.5312 57.9503 15.8C57.7114 16.0613 57.5919 16.4533 57.5919 16.976V20H55.8447V16.8192C55.8447 15.8709 55.4639 15.3968 54.7023 15.3968C54.2991 15.3968 53.978 15.5312 53.7391 15.8C53.5002 16.0613 53.3807 16.4533 53.3807 16.976V20H51.6335V13.9744H53.3023V14.6688C53.5263 14.4149 53.7988 14.2208 54.1199 14.0864C54.4484 13.952 54.8068 13.8848 55.1951 13.8848C55.6207 13.8848 56.0052 13.9707 56.3487 14.1424C56.6922 14.3067 56.9684 14.5493 57.1775 14.8704C57.4239 14.5568 57.7338 14.3141 58.1071 14.1424C58.4879 13.9707 58.9023 13.8848 59.3503 13.8848ZM66.1033 20.168C65.1475 20.168 64.4233 19.9552 63.9305 19.5296C63.4451 19.104 63.2025 18.4768 63.2025 17.648V13.9744H64.9385V16.0128C65.1251 15.8784 65.3641 15.7739 65.6553 15.6992C65.9539 15.6245 66.2862 15.5872 66.6521 15.5872C67.4062 15.5872 67.9961 15.7739 68.4217 16.1472C68.8473 16.5205 69.0601 17.0656 69.0601 17.7824C69.0601 18.5515 68.795 19.1413 68.2649 19.552C67.7422 19.9627 67.0217 20.168 66.1033 20.168ZM66.1033 18.936C66.4766 18.936 66.7641 18.8352 66.9657 18.6336C67.1747 18.432 67.2793 18.1595 67.2793 17.816C67.2793 17.4875 67.1785 17.2299 66.9769 17.0432C66.7827 16.8565 66.5027 16.7632 66.1369 16.7632C65.8681 16.7632 65.6291 16.8117 65.4201 16.9088C65.211 17.0059 65.0505 17.144 64.9385 17.3232V17.816C64.9385 18.1669 65.0393 18.4432 65.2409 18.6448C65.4499 18.8389 65.7374 18.936 66.1033 18.936Z" fill="black"/>
<path d="M77.672 14.4V20H76.088V15.624H75.048V14.4H77.672ZM83.7942 18.928H82.9622V20H81.4182V18.928H78.4582V17.896L80.9702 14.4H82.6102L80.3302 17.672H81.4662V16.72H82.9622V17.672H83.7942V18.928ZM86.2039 16.44C86.9879 16.44 87.5666 16.6 87.9399 16.92C88.3186 17.24 88.5079 17.6667 88.5079 18.2C88.5079 18.5467 88.4173 18.8667 88.2359 19.16C88.0599 19.448 87.7879 19.68 87.4199 19.856C87.0573 20.0267 86.6066 20.112 86.0679 20.112C85.6733 20.112 85.2813 20.064 84.8919 19.968C84.5079 19.872 84.1773 19.736 83.8999 19.56L84.4679 18.368C84.6919 18.5173 84.9373 18.632 85.2039 18.712C85.4759 18.792 85.7479 18.832 86.0199 18.832C86.2919 18.832 86.5079 18.7813 86.6679 18.68C86.8333 18.5733 86.9159 18.4267 86.9159 18.24C86.9159 18.0533 86.8359 17.912 86.6759 17.816C86.5159 17.72 86.2333 17.672 85.8279 17.672H84.3079L84.5879 14.4H88.1559V15.624H85.8999L85.8279 16.44H86.2039ZM91.4393 20.112C90.9593 20.112 90.5326 19.9973 90.1593 19.768C89.786 19.5387 89.4926 19.2053 89.2793 18.768C89.0713 18.3253 88.9673 17.8027 88.9673 17.2C88.9673 16.5973 89.0713 16.0773 89.2793 15.64C89.4926 15.1973 89.786 14.8613 90.1593 14.632C90.5326 14.4027 90.9593 14.288 91.4393 14.288C91.914 14.288 92.338 14.4027 92.7113 14.632C93.0846 14.8613 93.3753 15.1973 93.5833 15.64C93.7966 16.0773 93.9033 16.5973 93.9033 17.2C93.9033 17.8027 93.7966 18.3253 93.5833 18.768C93.3753 19.2053 93.0846 19.5387 92.7113 19.768C92.338 19.9973 91.914 20.112 91.4393 20.112ZM91.4393 18.816C91.706 18.816 91.9166 18.688 92.0713 18.432C92.2313 18.1707 92.3113 17.76 92.3113 17.2C92.3113 16.64 92.2313 16.232 92.0713 15.976C91.9166 15.7147 91.706 15.584 91.4393 15.584C91.1673 15.584 90.9513 15.7147 90.7913 15.976C90.6366 16.232 90.5593 16.64 90.5593 17.2C90.5593 17.76 90.6366 18.1707 90.7913 18.432C90.9513 18.688 91.1673 18.816 91.4393 18.816ZM101.612 15.656H99.9V20H98.34V15.656H96.62V14.4H101.612V15.656ZM105.8 16.872H103.68V20H102.168V15.664H105.8V16.872ZM106.558 20.072C106.302 20.072 106.086 19.9867 105.91 19.816C105.734 19.6453 105.646 19.4293 105.646 19.168C105.646 18.9013 105.731 18.6853 105.902 18.52C106.078 18.3547 106.296 18.272 106.558 18.272C106.824 18.272 107.043 18.3547 107.214 18.52C107.384 18.6853 107.47 18.9013 107.47 19.168C107.47 19.4293 107.382 19.6453 107.206 19.816C107.035 19.9867 106.819 20.072 106.558 20.072Z" fill="black"/>
</svg>
